<svg width="615" height="201" viewBox="0 0 615 201" fill="none" xmlns="http://www.w3.org/2000/svg">
<path d="M9.35138 162.12L35.7673 70.3148L52.3664 69.3867L53.3434 86.8594L47.6023 87.1804L29.133 161.014L9.35138 162.12ZM25.0412 139.334L28.8705 124.973L70.8674 122.624L76.2737 136.469L25.0412 139.334ZM74.562 158.474L47.9767 87.1595L46.9998 69.6868L57.9202 69.0762L94.3436 157.368L74.562 158.474Z" fill="#1F4096"/>
<path d="M139.927 125.016C136.722 125.174 133.763 124.798 131.048 123.889C128.333 122.98 125.931 121.638 123.841 119.864C121.749 118.048 120.034 115.838 118.696 113.234L118.321 113.252L118.884 124.676L100.656 125.574L96.2174 35.4962L114.445 34.5979L116.159 69.3682L116.533 69.3498C117.649 66.5832 119.158 64.1935 121.061 62.1807C122.962 60.1263 125.219 58.5133 127.831 57.3416C130.485 56.1679 133.393 55.5031 136.556 55.3473C142.174 55.0704 147.07 56.2267 151.244 58.816C155.458 61.3617 158.796 65.1812 161.258 70.2745C163.718 75.3262 165.127 81.4935 165.486 88.7763L165.489 88.8388C165.846 96.08 165.05 102.356 163.101 107.667C161.151 112.977 158.206 117.127 154.265 120.117C150.324 123.106 145.545 124.739 139.927 125.016ZM133.127 110.208C136.165 110.058 138.748 109.138 140.876 107.448C143.001 105.716 144.595 103.343 145.656 100.329C146.717 97.3147 147.148 93.7892 146.949 89.7524L146.946 89.69C146.745 85.6116 145.97 82.1456 144.619 79.2919C143.267 76.3966 141.428 74.2137 139.103 72.743C136.819 71.2703 134.179 70.6078 131.183 70.7554C128.228 70.901 125.667 71.8407 123.5 73.5745C121.372 75.2646 119.736 77.6188 118.591 80.6371C117.486 83.6118 117.033 87.1175 117.232 91.1543L117.235 91.2167C117.434 95.2535 118.231 98.7185 119.625 101.612C121.019 104.505 122.88 106.708 125.207 108.22C127.532 109.691 130.172 110.353 133.127 110.208Z" fill="#1F4096"/>
<path d="M204.782 160.016C198.003 159.594 192.227 157.836 187.451 154.741C182.676 151.647 179.099 147.416 176.72 142.05C174.34 136.683 173.376 130.382 173.827 123.146L173.834 123.021C174.282 115.827 176.039 109.737 179.105 104.751C182.174 99.7235 186.269 95.9708 191.391 93.4928C196.514 91.0147 202.402 89.9829 209.055 90.3973C215.751 90.8143 221.486 92.5701 226.261 95.6645C231.081 98.72 234.701 102.932 237.122 108.302C239.545 113.629 240.532 119.911 240.081 127.147L240.073 127.272C239.62 134.549 237.859 140.702 234.791 145.729C231.764 150.759 227.689 154.513 222.567 156.991C217.447 159.427 211.519 160.436 204.782 160.016ZM205.734 145.735C208.687 145.919 211.293 145.288 213.554 143.843C215.859 142.358 217.689 140.134 219.042 137.171C220.44 134.169 221.275 130.484 221.547 126.118L221.554 125.993C221.824 121.668 221.45 117.95 220.433 114.839C219.416 111.728 217.855 109.314 215.749 107.597C213.646 105.838 211.118 104.866 208.166 104.682C205.255 104.501 202.647 105.152 200.342 106.637C198.081 108.083 196.253 110.286 194.858 113.246C193.463 116.207 192.63 119.85 192.361 124.175L192.353 124.3C192.081 128.666 192.432 132.424 193.404 135.574C194.421 138.685 195.981 141.12 198.084 142.879C200.19 144.597 202.74 145.549 205.734 145.735Z" fill="#1F4096"/>
<path d="M276.438 167.382C271.534 167.031 267.428 165.735 264.121 163.493C260.859 161.213 258.447 158.138 256.886 154.266C255.366 150.398 254.792 145.866 255.164 140.671L258.249 97.5316L276.452 98.8333L273.639 138.17C273.327 142.534 274.103 145.994 275.967 148.55C277.873 151.109 280.862 152.535 284.935 152.826C286.972 152.971 288.826 152.749 290.497 152.158C292.21 151.571 293.694 150.674 294.95 149.469C296.209 148.222 297.214 146.728 297.965 144.985C298.719 143.201 299.174 141.229 299.328 139.067L302.074 100.665L320.278 101.967L315.499 168.797L297.295 167.495L298.084 156.461L297.71 156.434C296.365 158.886 294.67 160.978 292.625 162.712C290.621 164.448 288.253 165.72 285.522 166.528C282.832 167.338 279.804 167.623 276.438 167.382Z" fill="#1F4096"/>
<path d="M359.926 138.857C352.528 139.386 346.931 138.22 343.134 135.358C339.337 132.496 337.183 127.491 336.672 120.343L334.212 85.9308L324.923 86.5947L323.943 72.8797L333.232 72.2158L332.064 55.8824L350.455 54.568L351.622 70.9013L363.841 70.0279L364.822 83.743L352.603 84.6163L354.92 117.034C355.143 120.151 355.984 122.284 357.445 123.432C358.944 124.537 361.065 124.991 363.808 124.795C364.639 124.735 365.365 124.662 365.986 124.576C366.603 124.449 367.179 124.324 367.713 124.202L368.667 137.543C367.681 137.781 366.445 138.015 364.958 138.247C363.515 138.517 361.838 138.721 359.926 138.857Z" fill="#1F4096"/>
<path d="M416.803 157.701L420.214 67.5778L442.011 68.4026L465.167 134.138L465.541 134.152L493.599 70.3546L515.396 71.1794L511.985 161.302L495.185 160.667L497.491 99.7103L488.748 99.3794L508.618 73.4247L470.328 159.726L458.461 159.277L426.802 70.3289L444.654 97.711L435.91 97.3801L433.604 158.337L416.803 157.701Z" fill="#1F4096"/>
<path d="M564.414 148.389C557.705 149.686 551.672 149.43 546.315 147.622C540.95 145.773 536.464 142.545 532.858 137.937C529.292 133.321 526.834 127.516 525.482 120.52L525.47 120.459C524.118 113.463 524.237 107.159 525.826 101.548C527.448 95.887 530.342 91.2112 534.509 87.5202C538.709 83.7803 544.021 81.2898 550.444 80.0485C556.867 78.8073 562.675 79.1066 567.868 80.9462C573.094 82.7371 577.454 85.8625 580.947 90.3224C584.481 94.7744 586.888 100.314 588.169 106.942L589.236 112.464L535.052 122.936L532.869 111.645L578.586 102.81L572.096 115.013L570.768 108.14C570.025 104.294 568.811 101.198 567.127 98.8497C565.434 96.4607 563.398 94.8172 561.018 93.9192C558.678 93.0133 556.118 92.8291 553.336 93.3667C550.554 93.9043 548.209 95.0577 546.302 96.8267C544.436 98.5878 543.142 100.896 542.42 103.751C541.732 106.558 541.752 109.843 542.479 113.607L543.819 120.541C544.523 124.182 545.717 127.177 547.401 129.525C549.126 131.865 551.249 133.513 553.767 134.469C556.278 135.384 559.088 135.541 562.197 134.941C564.652 134.466 566.704 133.666 568.354 132.541C570.004 131.416 571.287 130.15 572.203 128.742C573.119 127.334 573.663 125.977 573.835 124.671L573.887 124.279L590.333 121.101L590.279 121.811C590.254 124.32 589.763 126.94 588.806 129.671C587.848 132.402 586.34 135.028 584.281 137.548C582.262 140.06 579.613 142.269 576.332 144.176C573.091 146.076 569.119 147.48 564.414 148.389Z" fill="#1F4096"/>
</svg>
