<svg width="710" height="194" viewBox="0 0 710 194" fill="none" xmlns="http://www.w3.org/2000/svg">
<path d="M34.1781 162.096L14.9494 73.9826L72.6538 61.3899L75.9719 76.5946L36.7084 85.1629L41.8654 108.794L77.7093 100.972L80.8942 115.566L45.0502 123.388L52.6191 158.072L34.1781 162.096Z" fill="#1F4096"/>
<path d="M114.901 125.676C110.448 125.895 106.494 125.235 103.039 123.695C99.5818 122.113 96.8213 119.85 94.7572 116.907C92.7327 113.919 91.6241 110.47 91.4313 106.558L91.4252 106.433C91.2242 102.355 92.0726 98.8294 93.9702 95.8573C95.8659 92.8437 98.7078 90.4092 102.496 88.5539C106.284 86.6985 110.937 85.4471 116.453 84.7998L142.467 81.8909L143.026 93.2521L119.754 95.9008C116.268 96.2812 113.646 97.2448 111.886 98.7916C110.125 100.297 109.303 102.235 109.42 104.608L109.426 104.732C109.547 107.188 110.579 109.077 112.521 110.399C114.461 111.68 117.013 112.243 120.176 112.087C122.881 111.954 125.269 111.315 127.34 110.17C129.451 108.981 131.065 107.441 132.181 105.551C133.337 103.617 133.858 101.484 133.743 99.1537L132.743 78.8658C132.598 75.9111 131.547 73.6267 129.59 72.0128C127.631 70.3572 124.862 69.6176 121.283 69.7939C117.87 69.9621 115.2 70.8029 113.272 72.3163C111.345 73.8296 110.205 75.6796 109.854 77.8662L109.757 78.4342L93.0895 79.2556L93.115 78.5034C93.2449 74.367 94.417 70.6381 96.6312 67.3168C98.887 63.9934 102.093 61.3324 106.25 59.3337C110.446 57.2913 115.478 56.1256 121.346 55.8364C127.131 55.5513 132.192 56.2406 136.529 57.9041C140.864 59.526 144.28 61.965 146.776 65.2211C149.315 68.4751 150.694 72.3494 150.916 76.8439L153.177 122.726L134.949 123.624L134.457 113.636L134.082 113.655C132.947 116.005 131.421 118.062 129.505 119.825C127.63 121.544 125.466 122.923 123.014 123.962C120.56 124.959 117.856 125.53 114.901 125.676Z" fill="#1F4096"/>
<path d="M178.506 150.233L159.528 81.921L178.991 83.1331L189.801 134.78L190.176 134.803L207.124 84.8853L226.149 86.0702L199.029 151.511L178.506 150.233Z" fill="#1F4096"/>
<path d="M249.237 107.646L250.374 91.7487L290.771 94.6374L289.634 110.534L249.237 107.646Z" fill="#1F4096"/>
<path d="M304.443 141.411L329.433 49.2072L346.016 48.022L347.264 65.4774L341.528 65.8874L324.205 139.998L304.443 141.411ZM319.778 118.384L323.384 103.965L365.34 100.967L370.96 114.726L319.778 118.384ZM369.59 136.755L341.902 65.8606L340.655 48.4052L351.564 47.6254L389.352 135.342L369.59 136.755Z" fill="#1F4096"/>
<path d="M398.543 159.154L401.953 69.0309L420.19 69.721L416.78 159.844L398.543 159.154Z" fill="#1F4096"/>
<path d="M543.308 141.266C538.407 140.88 534.311 139.553 531.021 137.288C527.775 134.984 525.386 131.89 523.853 128.008C522.362 124.128 521.821 119.593 522.231 114.401L525.632 71.2845L543.826 72.7198L540.724 112.035C540.38 116.397 541.131 119.862 542.976 122.432C544.863 125.005 547.842 126.452 551.912 126.773C553.948 126.934 555.803 126.725 557.479 126.147C559.196 125.572 560.687 124.686 561.952 123.49C563.219 122.253 564.235 120.765 564.999 119.029C565.767 117.25 566.235 115.281 566.406 113.121L569.434 74.7401L587.627 76.1754L582.358 142.968L564.164 141.533L565.034 130.504L564.661 130.475C563.298 132.917 561.587 134.997 559.529 136.716C557.512 138.437 555.135 139.692 552.398 140.479C549.703 141.269 546.673 141.532 543.308 141.266Z" fill="#1F4096"/>
<path d="M489.205 146.036C486.055 146.644 483.072 146.69 480.257 146.174C477.441 145.657 474.873 144.668 472.554 143.206C470.226 141.704 468.216 139.758 466.524 137.369L466.156 137.441L468.326 148.67L450.408 152.133L433.295 63.5838L451.214 60.1211L457.819 94.3012L458.187 94.23C458.901 91.3337 460.057 88.7549 461.657 86.4936C463.25 84.1913 465.256 82.2758 467.676 80.7471C470.138 79.2105 472.923 78.1418 476.032 77.5409C481.555 76.4736 486.566 76.927 491.064 78.9011C495.594 80.8264 499.438 84.1364 502.595 88.8311C505.743 93.4849 508.009 99.3914 509.393 106.551L509.405 106.612C510.78 113.73 510.878 120.056 509.698 125.588C508.518 131.121 506.188 135.645 502.709 139.161C499.229 142.677 494.728 144.968 489.205 146.036ZM480.383 132.336C483.37 131.759 485.797 130.483 487.665 128.51C489.524 126.495 490.767 123.921 491.392 120.787C492.017 117.653 491.946 114.102 491.179 110.134L491.167 110.073C490.393 106.063 489.135 102.742 487.396 100.107C485.648 97.432 483.519 95.5305 481.01 94.4028C478.541 93.2673 475.834 92.9841 472.889 93.5533C469.984 94.1146 467.581 95.4065 465.68 97.4289C463.813 99.4025 462.525 101.964 461.818 105.114C461.145 108.215 461.191 111.749 461.958 115.717L461.97 115.779C462.737 119.747 464.014 123.065 465.803 125.732C467.592 128.4 469.745 130.318 472.262 131.486C474.772 132.614 477.479 132.897 480.383 132.336Z" fill="#1F4096"/>
<path d="M601.327 129.665L611.298 63.4112L629.345 66.1272L627.671 77.2519L628.041 77.3077C629.972 73.7217 632.735 71.0405 636.331 69.2642C639.968 67.4942 644.012 66.944 648.461 67.6137C651.552 68.0787 654.252 69.0329 656.563 70.4763C658.874 71.9196 660.722 73.7778 662.108 76.051C663.534 78.3304 664.378 80.9854 664.638 84.0162L665.009 84.0721C666.419 81.4191 668.265 79.232 670.547 77.5107C672.876 75.7544 675.484 74.5246 678.371 73.8214C681.299 73.1244 684.39 73.0208 687.645 73.5107C691.971 74.1618 695.623 75.6593 698.599 78.0033C701.575 80.3473 703.718 83.3244 705.028 86.9347C706.339 90.545 706.657 94.5956 705.981 99.0867L699.163 144.389L681.116 141.673L687.255 100.882C687.639 98.3279 687.532 96.0996 686.934 94.1977C686.376 92.3019 685.362 90.7799 683.892 89.6316C682.462 88.4895 680.574 87.7418 678.225 87.3883C675.959 87.0473 673.883 87.2616 671.997 88.0312C670.153 88.807 668.618 90.0507 667.391 91.7622C666.164 93.4737 665.365 95.5655 664.993 98.0377L658.928 138.334L641.561 135.72L647.784 94.3733C648.144 91.9836 648.018 89.8789 647.407 88.0594C646.796 86.2399 645.752 84.7766 644.275 83.6695C642.846 82.5274 641.019 81.7889 638.794 81.4541C636.528 81.113 634.449 81.3479 632.557 82.1588C630.665 82.9696 629.083 84.2483 627.808 85.9948C626.576 87.7475 625.77 89.8805 625.392 92.3939L619.374 132.381L601.327 129.665Z" fill="#1F4096"/>
</svg>
