<svg width="155" height="190" viewBox="0 0 155 190" fill="none" xmlns="http://www.w3.org/2000/svg">
<path d="M40.2567 159.969L41.8637 64.4525L57.6489 59.2354L63.1406 75.8514L57.681 77.6558L59.0684 153.752L40.2567 159.969ZM49.474 133.884L49.4328 119.021L89.3705 105.822L98.1945 117.782L49.474 133.884ZM102.27 139.473L58.0371 77.5381L52.5454 60.9221L62.9304 57.4898L121.082 133.256L102.27 139.473Z" fill="#2C4C9D"/>
<path d="M56.4221 145.148L58.0291 49.6309L73.8143 44.4138L79.306 61.0298L73.8464 62.8342L75.2338 138.93L56.4221 145.148ZM65.6394 119.062L65.5982 104.2L105.536 91L114.36 102.96L65.6394 119.062ZM118.435 124.652L74.2025 62.7165L68.7108 46.1005L79.0958 42.6682L137.247 118.435L118.435 124.652Z" fill="white"/>
<path d="M107.364 24.2986L106.476 23.8679L95.8901 38.8558L78.2987 33.6358L77.8679 34.5235L92.8558 45.1099L87.6358 62.7013L88.5236 63.132L99.1099 48.1442L116.701 53.3642L117.132 52.4764L102.144 41.8901L107.364 24.2986Z" fill="white" stroke="#1F4096"/>
</svg>
