<svg width="698" height="270" viewBox="0 0 698 270" fill="none" xmlns="http://www.w3.org/2000/svg">
<path d="M0.75 95L32.25 4.8125H48.875V22.3125H43.125L20.5625 95H0.75ZM17.6875 73.125L22.3125 59H64.375L69 73.125H17.6875ZM66.0625 95L43.5 22.3125V4.8125H54.4375L85.875 95H66.0625ZM93.5625 95V28H111.812V39H112.188C113.938 35.1667 116.521 32.1458 119.938 29.9375C123.354 27.7292 127.583 26.625 132.625 26.625C140 26.625 145.688 28.8542 149.688 33.3125C153.729 37.7292 155.75 43.875 155.75 51.75V95H137.5V55.5C137.5 51.125 136.458 47.75 134.375 45.375C132.333 42.9583 129.271 41.75 125.188 41.75C122.479 41.75 120.125 42.375 118.125 43.625C116.125 44.8333 114.562 46.5417 113.438 48.75C112.354 50.9583 111.812 53.5417 111.812 56.5V95H93.5625ZM167.312 95V28H185.562V39H185.938C187.688 35.1667 190.271 32.1458 193.688 29.9375C197.104 27.7292 201.333 26.625 206.375 26.625C213.75 26.625 219.438 28.8542 223.438 33.3125C227.479 37.7292 229.5 43.875 229.5 51.75V95H211.25V55.5C211.25 51.125 210.208 47.75 208.125 45.375C206.083 42.9583 203.021 41.75 198.938 41.75C196.229 41.75 193.875 42.375 191.875 43.625C189.875 44.8333 188.312 46.5417 187.188 48.75C186.104 50.9583 185.562 53.5417 185.562 56.5V95H167.312ZM241.438 95V28H259.688V95H241.438ZM250.562 19.375C247.812 19.375 245.5 18.4375 243.625 16.5625C241.75 14.6875 240.812 12.4583 240.812 9.875C240.812 7.25 241.75 5.02083 243.625 3.1875C245.5 1.3125 247.812 0.375 250.562 0.375C253.312 0.375 255.625 1.3125 257.5 3.1875C259.375 5.02083 260.312 7.25 260.312 9.875C260.312 12.4583 259.375 14.6875 257.5 16.5625C255.625 18.4375 253.312 19.375 250.562 19.375ZM299.5 96.375C293.333 96.375 288.083 95.4792 283.75 93.6875C279.417 91.8958 276.021 89.4167 273.562 86.25C271.146 83.0417 269.688 79.3333 269.188 75.125L269.125 74.5625H286.938L287.062 75.125C287.646 77.75 288.958 79.7917 291 81.25C293.042 82.7083 295.875 83.4375 299.5 83.4375C301.833 83.4375 303.812 83.1667 305.438 82.625C307.062 82.0417 308.312 81.2292 309.188 80.1875C310.104 79.1458 310.562 77.8958 310.562 76.4375V76.375C310.562 74.5833 309.917 73.1458 308.625 72.0625C307.333 70.9792 305.042 70.0625 301.75 69.3125L290.375 66.9375C286.042 66.0208 282.417 64.7083 279.5 63C276.625 61.25 274.458 59.1042 273 56.5625C271.542 53.9792 270.812 51.0208 270.812 47.6875V47.625C270.812 43.3333 271.958 39.625 274.25 36.5C276.542 33.375 279.792 30.9583 284 29.25C288.25 27.5 293.208 26.625 298.875 26.625C304.792 26.625 309.812 27.5833 313.938 29.5C318.104 31.375 321.292 33.9167 323.5 37.125C325.75 40.3333 326.938 43.8958 327.062 47.8125V48.4375H310.25L310.188 47.9375C309.896 45.5208 308.771 43.5208 306.812 41.9375C304.896 40.3125 302.25 39.5 298.875 39.5C296.792 39.5 294.979 39.7917 293.438 40.375C291.896 40.9583 290.708 41.7917 289.875 42.875C289.042 43.9167 288.625 45.1667 288.625 46.625V46.6875C288.625 47.8125 288.896 48.8333 289.438 49.75C290.021 50.625 290.979 51.3958 292.312 52.0625C293.646 52.7292 295.438 53.3125 297.688 53.8125L309.062 56.25C316.104 57.7083 321.146 59.8958 324.188 62.8125C327.271 65.7292 328.812 69.6458 328.812 74.5625V74.625C328.812 79 327.562 82.8125 325.062 86.0625C322.562 89.3125 319.104 91.8542 314.688 93.6875C310.312 95.4792 305.25 96.375 299.5 96.375ZM357.75 96.0625C353.292 96.0625 349.375 95.2083 346 93.5C342.625 91.75 339.979 89.3542 338.062 86.3125C336.188 83.2292 335.25 79.7292 335.25 75.8125V75.6875C335.25 71.6042 336.271 68.125 338.312 65.25C340.354 62.3333 343.312 60.0417 347.188 58.375C351.062 56.7083 355.771 55.6875 361.312 55.3125L387.438 53.6875V65.0625L364.062 66.5625C360.562 66.7708 357.896 67.6042 356.062 69.0625C354.229 70.4792 353.312 72.375 353.312 74.75V74.875C353.312 77.3333 354.25 79.2708 356.125 80.6875C358 82.0625 360.521 82.75 363.688 82.75C366.396 82.75 368.812 82.2292 370.938 81.1875C373.104 80.1042 374.792 78.6458 376 76.8125C377.25 74.9375 377.875 72.8333 377.875 70.5V50.1875C377.875 47.2292 376.938 44.8958 375.062 43.1875C373.188 41.4375 370.458 40.5625 366.875 40.5625C363.458 40.5625 360.75 41.2708 358.75 42.6875C356.75 44.1042 355.521 45.8958 355.062 48.0625L354.938 48.625H338.25L338.312 47.875C338.646 43.75 340 40.0833 342.375 36.875C344.792 33.6667 348.125 31.1667 352.375 29.375C356.667 27.5417 361.75 26.625 367.625 26.625C373.417 26.625 378.438 27.5625 382.688 29.4375C386.938 31.2708 390.229 33.875 392.562 37.25C394.938 40.625 396.125 44.5625 396.125 49.0625V95H377.875V85H377.5C376.25 87.2917 374.625 89.2708 372.625 90.9375C370.667 92.5625 368.438 93.8333 365.938 94.75C363.438 95.625 360.708 96.0625 357.75 96.0625ZM444.375 66.5625V51.8125H466.5C471.917 51.8125 476.125 50.4375 479.125 47.6875C482.167 44.8958 483.688 40.9375 483.688 35.8125V35.6875C483.688 30.5625 482.167 26.625 479.125 23.875C476.125 21.125 471.917 19.75 466.5 19.75H444.375V4.8125H471.125C477.458 4.8125 483 6.10417 487.75 8.6875C492.5 11.2292 496.188 14.8125 498.812 19.4375C501.479 24.0625 502.812 29.4583 502.812 35.625V35.75C502.812 41.9583 501.479 47.375 498.812 52C496.188 56.625 492.5 60.2083 487.75 62.75C483 65.2917 477.458 66.5625 471.125 66.5625H444.375ZM434.875 95V4.8125H453.75V95H434.875ZM535.25 96.375C530.333 96.375 526.146 95.375 522.688 93.375C519.271 91.3333 516.646 88.4375 514.812 84.6875C513.021 80.9375 512.125 76.4583 512.125 71.25V28H530.375V67.4375C530.375 71.8125 531.396 75.2083 533.438 77.625C535.521 80.0417 538.604 81.25 542.688 81.25C544.729 81.25 546.562 80.8958 548.188 80.1875C549.854 79.4792 551.271 78.4792 552.438 77.1875C553.604 75.8542 554.5 74.2917 555.125 72.5C555.75 70.6667 556.062 68.6667 556.062 66.5V28H574.312V95H556.062V83.9375H555.688C554.521 86.4792 552.979 88.6875 551.062 90.5625C549.188 92.4375 546.917 93.875 544.25 94.875C541.625 95.875 538.625 96.375 535.25 96.375ZM612.812 96.375C605.396 96.375 599.896 94.8125 596.312 91.6875C592.729 88.5625 590.938 83.4167 590.938 76.25V41.75H581.625V28H590.938V11.625H609.375V28H621.625V41.75H609.375V74.25C609.375 77.375 610.062 79.5625 611.438 80.8125C612.854 82.0208 614.938 82.625 617.688 82.625C618.521 82.625 619.25 82.6042 619.875 82.5625C620.5 82.4792 621.083 82.3958 621.625 82.3125V95.6875C620.625 95.8542 619.375 96 617.875 96.125C616.417 96.2917 614.729 96.375 612.812 96.375ZM631.688 95V28H649.938V39.6875H650.312C651.312 35.5625 653.125 32.3542 655.75 30.0625C658.375 27.7708 661.646 26.625 665.562 26.625C666.562 26.625 667.521 26.6875 668.438 26.8125C669.354 26.9375 670.146 27.1042 670.812 27.3125V43.375C670.062 43.0833 669.104 42.8542 667.938 42.6875C666.771 42.4792 665.521 42.375 664.188 42.375C661.188 42.375 658.625 42.9583 656.5 44.125C654.375 45.2917 652.75 47 651.625 49.25C650.5 51.5 649.938 54.25 649.938 57.5V95H631.688ZM678.688 95V28H696.938V95H678.688ZM687.812 19.375C685.062 19.375 682.75 18.4375 680.875 16.5625C679 14.6875 678.062 12.4583 678.062 9.875C678.062 7.25 679 5.02083 680.875 3.1875C682.75 1.3125 685.062 0.375 687.812 0.375C690.562 0.375 692.875 1.3125 694.75 3.1875C696.625 5.02083 697.562 7.25 697.562 9.875C697.562 12.4583 696.625 14.6875 694.75 16.5625C692.875 18.4375 690.562 19.375 687.812 19.375ZM0.75 248L32.25 157.812H48.875V175.312H43.125L20.5625 248H0.75ZM17.6875 226.125L22.3125 212H64.375L69 226.125H17.6875ZM66.0625 248L43.5 175.312V157.812H54.4375L85.875 248H66.0625ZM93.5625 269.875V181H111.812V192.688H112.25C113.458 189.979 115.042 187.646 117 185.688C119 183.729 121.312 182.229 123.938 181.188C126.604 180.146 129.521 179.625 132.688 179.625C138.354 179.625 143.229 181.021 147.312 183.812C151.396 186.562 154.542 190.542 156.75 195.75C158.958 200.958 160.062 207.188 160.062 214.438V214.5C160.062 221.75 158.958 227.979 156.75 233.188C154.583 238.396 151.479 242.396 147.438 245.188C143.396 247.979 138.562 249.375 132.938 249.375C129.771 249.375 126.833 248.854 124.125 247.812C121.417 246.771 119.062 245.312 117.062 243.438C115.062 241.521 113.438 239.229 112.188 236.562H111.812V269.875H93.5625ZM126.688 234.25C129.729 234.25 132.354 233.458 134.562 231.875C136.771 230.25 138.479 227.958 139.688 225C140.896 222.042 141.5 218.542 141.5 214.5V214.438C141.5 210.354 140.896 206.833 139.688 203.875C138.479 200.917 136.75 198.667 134.5 197.125C132.292 195.542 129.688 194.75 126.688 194.75C123.729 194.75 121.125 195.562 118.875 197.188C116.625 198.771 114.875 201.042 113.625 204C112.375 206.917 111.75 210.417 111.75 214.5V214.562C111.75 218.562 112.375 222.042 113.625 225C114.917 227.958 116.667 230.25 118.875 231.875C121.125 233.458 123.729 234.25 126.688 234.25ZM169.562 248V181H187.812V192.688H188.188C189.188 188.562 191 185.354 193.625 183.062C196.25 180.771 199.521 179.625 203.438 179.625C204.438 179.625 205.396 179.688 206.312 179.812C207.229 179.938 208.021 180.104 208.688 180.312V196.375C207.938 196.083 206.979 195.854 205.812 195.688C204.646 195.479 203.396 195.375 202.062 195.375C199.062 195.375 196.5 195.958 194.375 197.125C192.25 198.292 190.625 200 189.5 202.25C188.375 204.5 187.812 207.25 187.812 210.5V248H169.562ZM216.562 248V181H234.812V248H216.562ZM225.688 172.375C222.938 172.375 220.625 171.438 218.75 169.562C216.875 167.688 215.938 165.458 215.938 162.875C215.938 160.25 216.875 158.021 218.75 156.188C220.625 154.312 222.938 153.375 225.688 153.375C228.438 153.375 230.75 154.312 232.625 156.188C234.5 158.021 235.438 160.25 235.438 162.875C235.438 165.458 234.5 167.688 232.625 169.562C230.75 171.438 228.438 172.375 225.688 172.375ZM247.5 248V157.812H265.75V248H247.5ZM278.438 248V181H296.688V248H278.438ZM287.562 172.375C284.812 172.375 282.5 171.438 280.625 169.562C278.75 167.688 277.812 165.458 277.812 162.875C277.812 160.25 278.75 158.021 280.625 156.188C282.5 154.312 284.812 153.375 287.562 153.375C290.312 153.375 292.625 154.312 294.5 156.188C296.375 158.021 297.312 160.25 297.312 162.875C297.312 165.458 296.375 167.688 294.5 169.562C292.625 171.438 290.312 172.375 287.562 172.375ZM328.875 249.062C324.417 249.062 320.5 248.208 317.125 246.5C313.75 244.75 311.104 242.354 309.188 239.312C307.312 236.229 306.375 232.729 306.375 228.812V228.688C306.375 224.604 307.396 221.125 309.438 218.25C311.479 215.333 314.438 213.042 318.312 211.375C322.188 209.708 326.896 208.688 332.438 208.312L358.562 206.688V218.062L335.188 219.562C331.688 219.771 329.021 220.604 327.188 222.062C325.354 223.479 324.438 225.375 324.438 227.75V227.875C324.438 230.333 325.375 232.271 327.25 233.688C329.125 235.062 331.646 235.75 334.812 235.75C337.521 235.75 339.938 235.229 342.062 234.188C344.229 233.104 345.917 231.646 347.125 229.812C348.375 227.938 349 225.833 349 223.5V203.188C349 200.229 348.062 197.896 346.188 196.188C344.312 194.438 341.583 193.562 338 193.562C334.583 193.562 331.875 194.271 329.875 195.688C327.875 197.104 326.646 198.896 326.188 201.062L326.062 201.625H309.375L309.438 200.875C309.771 196.75 311.125 193.083 313.5 189.875C315.917 186.667 319.25 184.167 323.5 182.375C327.792 180.542 332.875 179.625 338.75 179.625C344.542 179.625 349.562 180.562 353.812 182.438C358.062 184.271 361.354 186.875 363.688 190.25C366.062 193.625 367.25 197.562 367.25 202.062V248H349V238H348.625C347.375 240.292 345.75 242.271 343.75 243.938C341.792 245.562 339.562 246.833 337.062 247.75C334.562 248.625 331.833 249.062 328.875 249.062Z" fill="#1F4096"/>
</svg>
