<svg width="216" height="85" viewBox="0 0 216 85" fill="none" xmlns="http://www.w3.org/2000/svg">
<path d="M2.74219 19.6836V15.6211H9.83203C11.6549 15.6211 13.0612 15.1589 14.0508 14.2344C15.0534 13.2969 15.5547 11.9818 15.5547 10.2891V10.25C15.5547 8.54427 15.0534 7.22917 14.0508 6.30469C13.0612 5.38021 11.6549 4.91797 9.83203 4.91797H2.74219V0.816406H11.082C12.9831 0.816406 14.6497 1.20703 16.082 1.98828C17.5273 2.76953 18.6536 3.86979 19.4609 5.28906C20.2682 6.69531 20.6719 8.34245 20.6719 10.2305V10.2695C20.6719 12.1445 20.2682 13.7917 19.4609 15.2109C18.6536 16.6172 17.5273 17.7174 16.082 18.5117C14.6497 19.293 12.9831 19.6836 11.082 19.6836H2.74219ZM0.222656 29V0.816406H5.26172V29H0.222656ZM32.1953 29.4102C30.125 29.4102 28.3411 28.974 26.8438 28.1016C25.3594 27.2292 24.2201 25.9922 23.4258 24.3906C22.6315 22.7891 22.2344 20.8945 22.2344 18.707V18.6875C22.2344 16.513 22.6315 14.6185 23.4258 13.0039C24.2331 11.3763 25.3594 10.1133 26.8047 9.21484C28.263 8.31641 29.9818 7.86719 31.9609 7.86719C33.9271 7.86719 35.6263 8.30339 37.0586 9.17578C38.5039 10.0352 39.6107 11.2461 40.3789 12.8086C41.1602 14.3711 41.5508 16.194 41.5508 18.2773V19.8398H24.6367V16.5977H39.2266L36.8828 19.625V17.75C36.8828 16.3958 36.6745 15.2695 36.2578 14.3711C35.8411 13.4727 35.2682 12.8021 34.5391 12.3594C33.8099 11.9036 32.9701 11.6758 32.0195 11.6758C31.056 11.6758 30.1966 11.9102 29.4414 12.3789C28.6992 12.8346 28.1133 13.5182 27.6836 14.4297C27.2669 15.3411 27.0586 16.4479 27.0586 17.75V19.625C27.0586 20.888 27.2669 21.9688 27.6836 22.8672C28.1133 23.7526 28.7188 24.4362 29.5 24.918C30.2812 25.3867 31.2122 25.6211 32.293 25.6211C33.1003 25.6211 33.8099 25.4974 34.4219 25.25C35.0339 24.9896 35.5352 24.6576 35.9258 24.2539C36.3294 23.8503 36.6094 23.4141 36.7656 22.9453L36.8047 22.8086H41.3359L41.2969 23.0234C41.1276 23.8177 40.8151 24.599 40.3594 25.3672C39.9036 26.1224 39.2917 26.806 38.5234 27.418C37.7552 28.0299 36.8438 28.5182 35.7891 28.8828C34.7344 29.2344 33.5365 29.4102 32.1953 29.4102ZM44.6562 29V8.29688H49.5V11.5391H49.6172C50.151 10.4193 50.9453 9.52734 52 8.86328C53.0677 8.19922 54.3828 7.86719 55.9453 7.86719C58.224 7.86719 59.9818 8.55729 61.2188 9.9375C62.4688 11.3177 63.0938 13.2057 63.0938 15.6016V29H58.2305V16.5781C58.2305 15.1068 57.8854 13.974 57.1953 13.1797C56.5052 12.3724 55.4701 11.9688 54.0898 11.9688C53.1654 11.9688 52.3581 12.1836 51.668 12.6133C50.9779 13.0299 50.444 13.6159 50.0664 14.3711C49.6888 15.1133 49.5 15.9857 49.5 16.9883V29H44.6562ZM76.3359 36.2461C74.513 36.2461 72.918 35.9922 71.5508 35.4844C70.1966 34.9896 69.1159 34.306 68.3086 33.4336C67.5013 32.5612 67 31.5846 66.8047 30.5039L66.7656 30.3281H71.5312L71.6094 30.4844C71.8698 31.0833 72.4036 31.5781 73.2109 31.9688C74.0312 32.3724 75.0664 32.5742 76.3164 32.5742C77.9049 32.5742 79.1224 32.1836 79.9688 31.4023C80.8151 30.6211 81.2383 29.5729 81.2383 28.2578V25.2695H81.1406C80.763 26.0117 80.2552 26.6497 79.6172 27.1836C78.9922 27.7174 78.2565 28.1341 77.4102 28.4336C76.5768 28.7331 75.6654 28.8828 74.6758 28.8828C72.944 28.8828 71.4336 28.4596 70.1445 27.6133C68.8685 26.7669 67.8789 25.569 67.1758 24.0195C66.4857 22.457 66.1406 20.6016 66.1406 18.4531V18.4336C66.1406 16.2461 66.4922 14.3711 67.1953 12.8086C67.9115 11.2331 68.9141 10.0156 70.2031 9.15625C71.4922 8.29688 73.0091 7.86719 74.7539 7.86719C75.7305 7.86719 76.6289 8.03646 77.4492 8.375C78.2695 8.70052 78.9857 9.15625 79.5977 9.74219C80.2227 10.3281 80.7305 11.0182 81.1211 11.8125H81.2383V8.29688H86.1016V28.4141C86.1016 29.9766 85.7044 31.3438 84.9102 32.5156C84.1159 33.7005 82.9896 34.6185 81.5312 35.2695C80.0729 35.9206 78.3411 36.2461 76.3359 36.2461ZM76.1992 25.1328C77.2148 25.1328 78.1003 24.8659 78.8555 24.332C79.6107 23.7852 80.1966 23.0169 80.6133 22.0273C81.043 21.0378 81.2578 19.8789 81.2578 18.5508V18.5312C81.2578 17.1901 81.043 16.0312 80.6133 15.0547C80.1836 14.0651 79.5911 13.3034 78.8359 12.7695C78.0807 12.2357 77.2018 11.9688 76.1992 11.9688C75.1576 11.9688 74.2526 12.2357 73.4844 12.7695C72.7161 13.3034 72.1237 14.0586 71.707 15.0352C71.2904 16.0117 71.082 17.1771 71.082 18.5312V18.5508C71.082 19.9049 71.2904 21.0768 71.707 22.0664C72.1237 23.043 72.7161 23.7982 73.4844 24.332C74.2526 24.8659 75.1576 25.1328 76.1992 25.1328ZM96.1992 29.3516C94.832 29.3516 93.6211 29.0911 92.5664 28.5703C91.5247 28.0365 90.7109 27.3008 90.125 26.3633C89.5521 25.4128 89.2656 24.3255 89.2656 23.1016V23.0625C89.2656 21.8255 89.5716 20.7708 90.1836 19.8984C90.8086 19.013 91.707 18.3164 92.8789 17.8086C94.0508 17.2878 95.4701 16.9753 97.1367 16.8711L105.047 16.3828V19.6055L97.8203 20.0547C96.6224 20.1328 95.7044 20.4193 95.0664 20.9141C94.4284 21.4089 94.1094 22.0664 94.1094 22.8867V22.9062C94.1094 23.7526 94.4284 24.4232 95.0664 24.918C95.7174 25.3997 96.5768 25.6406 97.6445 25.6406C98.582 25.6406 99.4154 25.4518 100.145 25.0742C100.887 24.6966 101.473 24.1823 101.902 23.5312C102.332 22.8802 102.547 22.1445 102.547 21.3242V15.1133C102.547 14.0716 102.215 13.2513 101.551 12.6523C100.9 12.0404 99.9557 11.7344 98.7188 11.7344C97.5729 11.7344 96.6549 11.9818 95.9648 12.4766C95.2747 12.9583 94.8451 13.5833 94.6758 14.3516L94.6367 14.5273H90.1445L90.1641 14.293C90.2682 13.069 90.6784 11.9753 91.3945 11.0117C92.1107 10.0352 93.1003 9.26693 94.3633 8.70703C95.6393 8.14714 97.1497 7.86719 98.8945 7.86719C100.626 7.86719 102.124 8.15365 103.387 8.72656C104.663 9.29948 105.646 10.1003 106.336 11.1289C107.039 12.1576 107.391 13.3685 107.391 14.7617V29H102.547V25.8164H102.43C102.039 26.5326 101.531 27.1576 100.906 27.6914C100.281 28.2253 99.5651 28.6354 98.7578 28.9219C97.9635 29.2083 97.1107 29.3516 96.1992 29.3516ZM111.473 29V0.816406H116.336V29H111.473ZM126.59 29.3516C125.223 29.3516 124.012 29.0911 122.957 28.5703C121.915 28.0365 121.102 27.3008 120.516 26.3633C119.943 25.4128 119.656 24.3255 119.656 23.1016V23.0625C119.656 21.8255 119.962 20.7708 120.574 19.8984C121.199 19.013 122.098 18.3164 123.27 17.8086C124.441 17.2878 125.861 16.9753 127.527 16.8711L135.438 16.3828V19.6055L128.211 20.0547C127.013 20.1328 126.095 20.4193 125.457 20.9141C124.819 21.4089 124.5 22.0664 124.5 22.8867V22.9062C124.5 23.7526 124.819 24.4232 125.457 24.918C126.108 25.3997 126.967 25.6406 128.035 25.6406C128.973 25.6406 129.806 25.4518 130.535 25.0742C131.277 24.6966 131.863 24.1823 132.293 23.5312C132.723 22.8802 132.938 22.1445 132.938 21.3242V15.1133C132.938 14.0716 132.605 13.2513 131.941 12.6523C131.29 12.0404 130.346 11.7344 129.109 11.7344C127.964 11.7344 127.046 11.9818 126.355 12.4766C125.665 12.9583 125.236 13.5833 125.066 14.3516L125.027 14.5273H120.535L120.555 14.293C120.659 13.069 121.069 11.9753 121.785 11.0117C122.501 10.0352 123.491 9.26693 124.754 8.70703C126.03 8.14714 127.54 7.86719 129.285 7.86719C131.017 7.86719 132.514 8.15365 133.777 8.72656C135.053 9.29948 136.036 10.1003 136.727 11.1289C137.43 12.1576 137.781 13.3685 137.781 14.7617V29H132.938V25.8164H132.82C132.43 26.5326 131.922 27.1576 131.297 27.6914C130.672 28.2253 129.956 28.6354 129.148 28.9219C128.354 29.2083 127.501 29.3516 126.59 29.3516ZM141.727 29V8.29688H146.57V11.6172H146.688C147.117 10.4844 147.84 9.57943 148.855 8.90234C149.871 8.21224 151.062 7.86719 152.43 7.86719C153.393 7.86719 154.259 8.03646 155.027 8.375C155.796 8.70052 156.447 9.17578 156.98 9.80078C157.527 10.4128 157.924 11.1615 158.172 12.0469H158.27C158.608 11.1875 159.09 10.4518 159.715 9.83984C160.353 9.21484 161.095 8.73307 161.941 8.39453C162.801 8.04297 163.725 7.86719 164.715 7.86719C166.082 7.86719 167.267 8.16016 168.27 8.74609C169.285 9.31901 170.073 10.1263 170.633 11.168C171.206 12.1966 171.492 13.4076 171.492 14.8008V29H166.629V15.9922C166.629 15.1328 166.486 14.4036 166.199 13.8047C165.913 13.2057 165.496 12.75 164.949 12.4375C164.402 12.125 163.725 11.9688 162.918 11.9688C162.137 11.9688 161.447 12.151 160.848 12.5156C160.262 12.8672 159.799 13.362 159.461 14C159.135 14.638 158.973 15.3737 158.973 16.207V29H154.246V15.7383C154.246 14.957 154.096 14.2865 153.797 13.7266C153.497 13.1667 153.074 12.737 152.527 12.4375C151.98 12.125 151.329 11.9688 150.574 11.9688C149.793 11.9688 149.103 12.1576 148.504 12.5352C147.905 12.9128 147.43 13.4271 147.078 14.0781C146.74 14.7292 146.57 15.4779 146.57 16.3242V29H141.727ZM181.512 29.3516C180.145 29.3516 178.934 29.0911 177.879 28.5703C176.837 28.0365 176.023 27.3008 175.438 26.3633C174.865 25.4128 174.578 24.3255 174.578 23.1016V23.0625C174.578 21.8255 174.884 20.7708 175.496 19.8984C176.121 19.013 177.02 18.3164 178.191 17.8086C179.363 17.2878 180.783 16.9753 182.449 16.8711L190.359 16.3828V19.6055L183.133 20.0547C181.935 20.1328 181.017 20.4193 180.379 20.9141C179.741 21.4089 179.422 22.0664 179.422 22.8867V22.9062C179.422 23.7526 179.741 24.4232 180.379 24.918C181.03 25.3997 181.889 25.6406 182.957 25.6406C183.895 25.6406 184.728 25.4518 185.457 25.0742C186.199 24.6966 186.785 24.1823 187.215 23.5312C187.645 22.8802 187.859 22.1445 187.859 21.3242V15.1133C187.859 14.0716 187.527 13.2513 186.863 12.6523C186.212 12.0404 185.268 11.7344 184.031 11.7344C182.885 11.7344 181.967 11.9818 181.277 12.4766C180.587 12.9583 180.158 13.5833 179.988 14.3516L179.949 14.5273H175.457L175.477 14.293C175.581 13.069 175.991 11.9753 176.707 11.0117C177.423 10.0352 178.413 9.26693 179.676 8.70703C180.952 8.14714 182.462 7.86719 184.207 7.86719C185.939 7.86719 187.436 8.15365 188.699 8.72656C189.975 9.29948 190.958 10.1003 191.648 11.1289C192.352 12.1576 192.703 13.3685 192.703 14.7617V29H187.859V25.8164H187.742C187.352 26.5326 186.844 27.1576 186.219 27.6914C185.594 28.2253 184.878 28.6354 184.07 28.9219C183.276 29.2083 182.423 29.3516 181.512 29.3516ZM196.648 29V8.29688H201.492V11.5391H201.609C202.143 10.4193 202.938 9.52734 203.992 8.86328C205.06 8.19922 206.375 7.86719 207.938 7.86719C210.216 7.86719 211.974 8.55729 213.211 9.9375C214.461 11.3177 215.086 13.2057 215.086 15.6016V29H210.223V16.5781C210.223 15.1068 209.878 13.974 209.188 13.1797C208.497 12.3724 207.462 11.9688 206.082 11.9688C205.158 11.9688 204.35 12.1836 203.66 12.6133C202.97 13.0299 202.436 13.6159 202.059 14.3711C201.681 15.1133 201.492 15.9857 201.492 16.9883V29H196.648ZM43.1523 77.4883C40.4049 77.4883 38.0286 76.8958 36.0234 75.7109C34.0312 74.526 32.4883 72.8464 31.3945 70.6719C30.3138 68.4844 29.7734 65.8997 29.7734 62.918V62.8789C29.7734 59.8971 30.3203 57.319 31.4141 55.1445C32.5078 52.9701 34.0508 51.2904 36.043 50.1055C38.0482 48.9206 40.418 48.3281 43.1523 48.3281C45.8867 48.3281 48.25 48.9206 50.2422 50.1055C52.2474 51.2904 53.7904 52.9701 54.8711 55.1445C55.9648 57.319 56.5117 59.8971 56.5117 62.8789V62.918C56.5117 65.8997 55.9648 68.4844 54.8711 70.6719C53.7904 72.8464 52.2539 74.526 50.2617 75.7109C48.2695 76.8958 45.8997 77.4883 43.1523 77.4883ZM43.1523 73.1328C44.8581 73.1328 46.3229 72.7161 47.5469 71.8828C48.7839 71.0365 49.7344 69.8516 50.3984 68.3281C51.0625 66.7917 51.3945 64.9883 51.3945 62.918V62.8789C51.3945 60.7956 51.056 58.9922 50.3789 57.4688C49.7148 55.9323 48.7643 54.7539 47.5273 53.9336C46.2904 53.1003 44.832 52.6836 43.1523 52.6836C41.4857 52.6836 40.0273 53.1003 38.7773 53.9336C37.5404 54.7539 36.5833 55.9258 35.9062 57.4492C35.2422 58.9727 34.9102 60.7826 34.9102 62.8789V62.918C34.9102 65.0013 35.2422 66.8112 35.9062 68.3477C36.5833 69.8711 37.5404 71.0495 38.7773 71.8828C40.0143 72.7161 41.4727 73.1328 43.1523 73.1328ZM60.0469 77V56.2969H64.8906V59.8711H65.0078C65.3203 58.6211 65.8867 57.6445 66.707 56.9414C67.5404 56.2253 68.556 55.8672 69.7539 55.8672C70.0534 55.8672 70.3398 55.8867 70.6133 55.9258C70.8867 55.9648 71.1146 56.0104 71.2969 56.0625V60.457C71.1016 60.3789 70.8216 60.3138 70.457 60.2617C70.1055 60.2096 69.7214 60.1836 69.3047 60.1836C68.3932 60.1836 67.6055 60.3724 66.9414 60.75C66.2773 61.1146 65.7695 61.6549 65.418 62.3711C65.0664 63.0872 64.8906 63.9596 64.8906 64.9883V77H60.0469ZM82.3516 84.2461C80.5286 84.2461 78.9336 83.9922 77.5664 83.4844C76.2122 82.9896 75.1315 82.306 74.3242 81.4336C73.5169 80.5612 73.0156 79.5846 72.8203 78.5039L72.7812 78.3281H77.5469L77.625 78.4844C77.8854 79.0833 78.4193 79.5781 79.2266 79.9688C80.0469 80.3724 81.082 80.5742 82.332 80.5742C83.9206 80.5742 85.138 80.1836 85.9844 79.4023C86.8307 78.6211 87.2539 77.5729 87.2539 76.2578V73.2695H87.1562C86.7786 74.0117 86.2708 74.6497 85.6328 75.1836C85.0078 75.7174 84.2721 76.1341 83.4258 76.4336C82.5924 76.7331 81.681 76.8828 80.6914 76.8828C78.9596 76.8828 77.4492 76.4596 76.1602 75.6133C74.8841 74.7669 73.8945 73.569 73.1914 72.0195C72.5013 70.457 72.1562 68.6016 72.1562 66.4531V66.4336C72.1562 64.2461 72.5078 62.3711 73.2109 60.8086C73.9271 59.2331 74.9297 58.0156 76.2188 57.1562C77.5078 56.2969 79.0247 55.8672 80.7695 55.8672C81.7461 55.8672 82.6445 56.0365 83.4648 56.375C84.2852 56.7005 85.0013 57.1562 85.6133 57.7422C86.2383 58.3281 86.7461 59.0182 87.1367 59.8125H87.2539V56.2969H92.1172V76.4141C92.1172 77.9766 91.7201 79.3438 90.9258 80.5156C90.1315 81.7005 89.0052 82.6185 87.5469 83.2695C86.0885 83.9206 84.3568 84.2461 82.3516 84.2461ZM82.2148 73.1328C83.2305 73.1328 84.1159 72.8659 84.8711 72.332C85.6263 71.7852 86.2122 71.0169 86.6289 70.0273C87.0586 69.0378 87.2734 67.8789 87.2734 66.5508V66.5312C87.2734 65.1901 87.0586 64.0312 86.6289 63.0547C86.1992 62.0651 85.6068 61.3034 84.8516 60.7695C84.0964 60.2357 83.2174 59.9688 82.2148 59.9688C81.1732 59.9688 80.2682 60.2357 79.5 60.7695C78.7318 61.3034 78.1393 62.0586 77.7227 63.0352C77.306 64.0117 77.0977 65.1771 77.0977 66.5312V66.5508C77.0977 67.9049 77.306 69.0768 77.7227 70.0664C78.1393 71.043 78.7318 71.7982 79.5 72.332C80.2682 72.8659 81.1732 73.1328 82.2148 73.1328ZM102.215 77.3516C100.848 77.3516 99.6367 77.0911 98.582 76.5703C97.5404 76.0365 96.7266 75.3008 96.1406 74.3633C95.5677 73.4128 95.2812 72.3255 95.2812 71.1016V71.0625C95.2812 69.8255 95.5872 68.7708 96.1992 67.8984C96.8242 67.013 97.7227 66.3164 98.8945 65.8086C100.066 65.2878 101.486 64.9753 103.152 64.8711L111.062 64.3828V67.6055L103.836 68.0547C102.638 68.1328 101.72 68.4193 101.082 68.9141C100.444 69.4089 100.125 70.0664 100.125 70.8867V70.9062C100.125 71.7526 100.444 72.4232 101.082 72.918C101.733 73.3997 102.592 73.6406 103.66 73.6406C104.598 73.6406 105.431 73.4518 106.16 73.0742C106.902 72.6966 107.488 72.1823 107.918 71.5312C108.348 70.8802 108.562 70.1445 108.562 69.3242V63.1133C108.562 62.0716 108.23 61.2513 107.566 60.6523C106.915 60.0404 105.971 59.7344 104.734 59.7344C103.589 59.7344 102.671 59.9818 101.98 60.4766C101.29 60.9583 100.861 61.5833 100.691 62.3516L100.652 62.5273H96.1602L96.1797 62.293C96.2839 61.069 96.694 59.9753 97.4102 59.0117C98.1263 58.0352 99.1159 57.2669 100.379 56.707C101.655 56.1471 103.165 55.8672 104.91 55.8672C106.642 55.8672 108.139 56.1536 109.402 56.7266C110.678 57.2995 111.661 58.1003 112.352 59.1289C113.055 60.1576 113.406 61.3685 113.406 62.7617V77H108.562V73.8164H108.445C108.055 74.5326 107.547 75.1576 106.922 75.6914C106.297 76.2253 105.581 76.6354 104.773 76.9219C103.979 77.2083 103.126 77.3516 102.215 77.3516ZM117.352 77V56.2969H122.195V59.5391H122.312C122.846 58.4193 123.641 57.5273 124.695 56.8633C125.763 56.1992 127.078 55.8672 128.641 55.8672C130.919 55.8672 132.677 56.5573 133.914 57.9375C135.164 59.3177 135.789 61.2057 135.789 63.6016V77H130.926V64.5781C130.926 63.1068 130.581 61.974 129.891 61.1797C129.201 60.3724 128.165 59.9688 126.785 59.9688C125.861 59.9688 125.053 60.1836 124.363 60.6133C123.673 61.0299 123.139 61.6159 122.762 62.3711C122.384 63.1133 122.195 63.9857 122.195 64.9883V77H117.352ZM139.832 77V56.2969H144.695V77H139.832ZM142.254 53.3281C141.499 53.3281 140.861 53.0677 140.34 52.5469C139.819 52.026 139.559 51.401 139.559 50.6719C139.559 49.9297 139.819 49.3047 140.34 48.7969C140.861 48.276 141.499 48.0156 142.254 48.0156C143.022 48.0156 143.667 48.276 144.188 48.7969C144.708 49.3047 144.969 49.9297 144.969 50.6719C144.969 51.401 144.708 52.026 144.188 52.5469C143.667 53.0677 143.022 53.3281 142.254 53.3281ZM156.922 77.4102C155.112 77.4102 153.562 77.1432 152.273 76.6094C150.997 76.0755 149.995 75.3268 149.266 74.3633C148.549 73.3867 148.113 72.2604 147.957 70.9844L147.938 70.8086H152.723L152.762 70.9844C152.944 71.8828 153.374 72.5794 154.051 73.0742C154.741 73.569 155.704 73.8164 156.941 73.8164C157.736 73.8164 158.413 73.7188 158.973 73.5234C159.533 73.3281 159.962 73.0417 160.262 72.6641C160.574 72.2865 160.73 71.8438 160.73 71.3359V71.3164C160.73 70.7044 160.522 70.2096 160.105 69.832C159.689 69.4414 158.94 69.1224 157.859 68.875L154.422 68.1133C153.107 67.8138 152.007 67.4036 151.121 66.8828C150.236 66.362 149.572 65.7174 149.129 64.9492C148.686 64.168 148.465 63.263 148.465 62.2344V62.2148C148.465 60.9518 148.81 59.8451 149.5 58.8945C150.19 57.944 151.16 57.2018 152.41 56.668C153.66 56.1341 155.112 55.8672 156.766 55.8672C158.484 55.8672 159.956 56.1536 161.18 56.7266C162.404 57.2995 163.348 58.0677 164.012 59.0312C164.689 59.9948 165.053 61.0755 165.105 62.2734L165.125 62.4883H160.594L160.574 62.332C160.47 61.4987 160.092 60.8151 159.441 60.2812C158.79 59.7344 157.898 59.4609 156.766 59.4609C156.049 59.4609 155.424 59.5651 154.891 59.7734C154.37 59.9818 153.966 60.2747 153.68 60.6523C153.406 61.0299 153.27 61.4727 153.27 61.9805V62C153.27 62.3906 153.367 62.7422 153.562 63.0547C153.758 63.3672 154.07 63.6406 154.5 63.875C154.93 64.0964 155.503 64.2917 156.219 64.4609L159.656 65.2227C161.805 65.7044 163.335 66.3945 164.246 67.293C165.158 68.1784 165.613 69.3698 165.613 70.8672V70.8867C165.613 72.1888 165.242 73.3346 164.5 74.3242C163.758 75.3008 162.729 76.0625 161.414 76.6094C160.112 77.1432 158.615 77.4102 156.922 77.4102ZM174.832 77.3516C173.465 77.3516 172.254 77.0911 171.199 76.5703C170.158 76.0365 169.344 75.3008 168.758 74.3633C168.185 73.4128 167.898 72.3255 167.898 71.1016V71.0625C167.898 69.8255 168.204 68.7708 168.816 67.8984C169.441 67.013 170.34 66.3164 171.512 65.8086C172.684 65.2878 174.103 64.9753 175.77 64.8711L183.68 64.3828V67.6055L176.453 68.0547C175.255 68.1328 174.337 68.4193 173.699 68.9141C173.061 69.4089 172.742 70.0664 172.742 70.8867V70.9062C172.742 71.7526 173.061 72.4232 173.699 72.918C174.35 73.3997 175.21 73.6406 176.277 73.6406C177.215 73.6406 178.048 73.4518 178.777 73.0742C179.52 72.6966 180.105 72.1823 180.535 71.5312C180.965 70.8802 181.18 70.1445 181.18 69.3242V63.1133C181.18 62.0716 180.848 61.2513 180.184 60.6523C179.533 60.0404 178.589 59.7344 177.352 59.7344C176.206 59.7344 175.288 59.9818 174.598 60.4766C173.908 60.9583 173.478 61.5833 173.309 62.3516L173.27 62.5273H168.777L168.797 62.293C168.901 61.069 169.311 59.9753 170.027 59.0117C170.743 58.0352 171.733 57.2669 172.996 56.707C174.272 56.1471 175.783 55.8672 177.527 55.8672C179.259 55.8672 180.757 56.1536 182.02 56.7266C183.296 57.2995 184.279 58.1003 184.969 59.1289C185.672 60.1576 186.023 61.3685 186.023 62.7617V77H181.18V73.8164H181.062C180.672 74.5326 180.164 75.1576 179.539 75.6914C178.914 76.2253 178.198 76.6354 177.391 76.9219C176.596 77.2083 175.743 77.3516 174.832 77.3516ZM198.055 77.4102C196.245 77.4102 194.695 77.1432 193.406 76.6094C192.13 76.0755 191.128 75.3268 190.398 74.3633C189.682 73.3867 189.246 72.2604 189.09 70.9844L189.07 70.8086H193.855L193.895 70.9844C194.077 71.8828 194.507 72.5794 195.184 73.0742C195.874 73.569 196.837 73.8164 198.074 73.8164C198.868 73.8164 199.546 73.7188 200.105 73.5234C200.665 73.3281 201.095 73.0417 201.395 72.6641C201.707 72.2865 201.863 71.8438 201.863 71.3359V71.3164C201.863 70.7044 201.655 70.2096 201.238 69.832C200.822 69.4414 200.073 69.1224 198.992 68.875L195.555 68.1133C194.24 67.8138 193.139 67.4036 192.254 66.8828C191.368 66.362 190.704 65.7174 190.262 64.9492C189.819 64.168 189.598 63.263 189.598 62.2344V62.2148C189.598 60.9518 189.943 59.8451 190.633 58.8945C191.323 57.944 192.293 57.2018 193.543 56.668C194.793 56.1341 196.245 55.8672 197.898 55.8672C199.617 55.8672 201.089 56.1536 202.312 56.7266C203.536 57.2995 204.48 58.0677 205.145 59.0312C205.822 59.9948 206.186 61.0755 206.238 62.2734L206.258 62.4883H201.727L201.707 62.332C201.603 61.4987 201.225 60.8151 200.574 60.2812C199.923 59.7344 199.031 59.4609 197.898 59.4609C197.182 59.4609 196.557 59.5651 196.023 59.7734C195.503 59.9818 195.099 60.2747 194.812 60.6523C194.539 61.0299 194.402 61.4727 194.402 61.9805V62C194.402 62.3906 194.5 62.7422 194.695 63.0547C194.891 63.3672 195.203 63.6406 195.633 63.875C196.062 64.0964 196.635 64.2917 197.352 64.4609L200.789 65.2227C202.938 65.7044 204.467 66.3945 205.379 67.293C206.29 68.1784 206.746 69.3698 206.746 70.8672V70.8867C206.746 72.1888 206.375 73.3346 205.633 74.3242C204.891 75.3008 203.862 76.0625 202.547 76.6094C201.245 77.1432 199.747 77.4102 198.055 77.4102ZM209.988 77V56.2969H214.852V77H209.988ZM212.41 53.3281C211.655 53.3281 211.017 53.0677 210.496 52.5469C209.975 52.026 209.715 51.401 209.715 50.6719C209.715 49.9297 209.975 49.3047 210.496 48.7969C211.017 48.276 211.655 48.0156 212.41 48.0156C213.178 48.0156 213.823 48.276 214.344 48.7969C214.865 49.3047 215.125 49.9297 215.125 50.6719C215.125 51.401 214.865 52.026 214.344 52.5469C213.823 53.0677 213.178 53.3281 212.41 53.3281Z" fill="#1F4096"/>
</svg>
