<svg width="264" height="85" viewBox="0 0 264 85" fill="none" xmlns="http://www.w3.org/2000/svg">
<path d="M14.082 30.4883C11.2956 30.4883 8.88021 29.8958 6.83594 28.7109C4.80469 27.526 3.23568 25.8464 2.12891 23.6719C1.03516 21.4844 0.488281 18.8997 0.488281 15.918V15.8789C0.488281 12.8841 1.04167 10.2995 2.14844 8.125C3.25521 5.95052 4.82422 4.27734 6.85547 3.10547C8.89974 1.92057 11.3086 1.32812 14.082 1.32812C16.8685 1.32812 19.2773 1.92057 21.3086 3.10547C23.3398 4.29036 24.9089 5.97005 26.0156 8.14453C27.1224 10.306 27.6758 12.8841 27.6758 15.8789V15.918C27.6758 18.8997 27.1224 21.4844 26.0156 23.6719C24.9089 25.8464 23.3398 27.526 21.3086 28.7109C19.2904 29.8958 16.8815 30.4883 14.082 30.4883ZM14.082 25.4883C15.6445 25.4883 16.9922 25.0977 18.125 24.3164C19.2578 23.5221 20.1302 22.4089 20.7422 20.9766C21.3542 19.5443 21.6602 17.8581 21.6602 15.918V15.8789C21.6602 13.9128 21.3477 12.2201 20.7227 10.8008C20.1107 9.36849 19.2318 8.26823 18.0859 7.5C16.9531 6.71875 15.6185 6.32812 14.082 6.32812C12.5456 6.32812 11.2044 6.71224 10.0586 7.48047C8.92578 8.2487 8.04688 9.34896 7.42188 10.7812C6.8099 12.2005 6.50391 13.8997 6.50391 15.8789V15.918C6.50391 17.8711 6.8099 19.5638 7.42188 20.9961C8.04688 22.4284 8.92578 23.5352 10.0586 24.3164C11.1914 25.0977 12.5326 25.4883 14.082 25.4883ZM30.9961 30V9.0625H36.6992V12.7148H36.8164C37.1289 11.4258 37.6953 10.4232 38.5156 9.70703C39.3359 8.99089 40.3581 8.63281 41.582 8.63281C41.8945 8.63281 42.194 8.65234 42.4805 8.69141C42.7669 8.73047 43.0143 8.78255 43.2227 8.84766V13.8672C42.9883 13.776 42.6888 13.7044 42.3242 13.6523C41.9596 13.5872 41.569 13.5547 41.1523 13.5547C40.2148 13.5547 39.4141 13.737 38.75 14.1016C38.0859 14.4661 37.5781 15 37.2266 15.7031C36.875 16.4062 36.6992 17.2656 36.6992 18.2812V30H30.9961ZM54.6875 37.2656C52.7734 37.2656 51.1003 36.9987 49.668 36.4648C48.2487 35.944 47.1159 35.2344 46.2695 34.3359C45.4362 33.4375 44.9284 32.4284 44.7461 31.3086L44.7266 31.1328H50.2734L50.332 31.2695C50.5664 31.7773 51.0547 32.2266 51.7969 32.6172C52.5391 33.0078 53.5026 33.2031 54.6875 33.2031C56.1589 33.2031 57.2786 32.8516 58.0469 32.1484C58.8151 31.4453 59.1992 30.5078 59.1992 29.3359V26.1328H59.082C58.7174 26.862 58.2227 27.4935 57.5977 28.0273C56.9727 28.5612 56.237 28.9779 55.3906 29.2773C54.5573 29.5638 53.6328 29.707 52.6172 29.707C50.8724 29.707 49.362 29.2904 48.0859 28.457C46.8229 27.6237 45.8464 26.4323 45.1562 24.8828C44.4792 23.3203 44.1406 21.4583 44.1406 19.2969V19.2773C44.1406 17.0508 44.4857 15.1432 45.1758 13.5547C45.8789 11.9661 46.8685 10.7487 48.1445 9.90234C49.4206 9.05599 50.944 8.63281 52.7148 8.63281C53.7044 8.63281 54.6094 8.79557 55.4297 9.12109C56.25 9.44661 56.9661 9.90885 57.5781 10.5078C58.2031 11.1068 58.7044 11.8164 59.082 12.6367H59.1992V9.0625H64.9023V29.4141C64.9023 30.9635 64.4857 32.3242 63.6523 33.4961C62.832 34.681 61.6536 35.6055 60.1172 36.2695C58.5938 36.9336 56.7839 37.2656 54.6875 37.2656ZM54.5898 25.5273C55.5273 25.5273 56.3411 25.2799 57.0312 24.7852C57.7214 24.2904 58.2552 23.5872 58.6328 22.6758C59.0234 21.7643 59.2188 20.6836 59.2188 19.4336V19.4141C59.2188 18.1641 59.0234 17.0898 58.6328 16.1914C58.2552 15.2799 57.7148 14.5833 57.0117 14.1016C56.3216 13.6068 55.5143 13.3594 54.5898 13.3594C53.6523 13.3594 52.832 13.6068 52.1289 14.1016C51.4258 14.5833 50.8854 15.2734 50.5078 16.1719C50.1302 17.0703 49.9414 18.151 49.9414 19.4141V19.4336C49.9414 20.6836 50.1302 21.7643 50.5078 22.6758C50.8854 23.5872 51.4258 24.2904 52.1289 24.7852C52.832 25.2799 53.6523 25.5273 54.5898 25.5273ZM74.8828 30.332C73.4896 30.332 72.2656 30.0651 71.2109 29.5312C70.1562 28.9844 69.3294 28.2357 68.7305 27.2852C68.1445 26.3216 67.8516 25.2279 67.8516 24.0039V23.9648C67.8516 22.6888 68.1706 21.6016 68.8086 20.7031C69.4466 19.7917 70.3711 19.0755 71.582 18.5547C72.793 18.0339 74.2643 17.7148 75.9961 17.5977L84.1602 17.0898V20.6445L76.8555 21.1133C75.7617 21.1784 74.9284 21.4388 74.3555 21.8945C73.7826 22.3372 73.4961 22.9297 73.4961 23.6719V23.7109C73.4961 24.4792 73.7891 25.0846 74.375 25.5273C74.9609 25.957 75.7487 26.1719 76.7383 26.1719C77.5846 26.1719 78.3398 26.0091 79.0039 25.6836C79.681 25.3451 80.2083 24.8893 80.5859 24.3164C80.9766 23.7305 81.1719 23.0729 81.1719 22.3438V15.9961C81.1719 15.0716 80.8789 14.3424 80.293 13.8086C79.707 13.2617 78.8542 12.9883 77.7344 12.9883C76.6667 12.9883 75.8203 13.2096 75.1953 13.6523C74.5703 14.0951 74.1862 14.6549 74.043 15.332L74.0039 15.5078H68.7891L68.8086 15.2734C68.9128 13.9844 69.3359 12.8385 70.0781 11.8359C70.8333 10.8333 71.875 10.0521 73.2031 9.49219C74.5443 8.91927 76.1328 8.63281 77.9688 8.63281C79.7786 8.63281 81.3477 8.92578 82.6758 9.51172C84.0039 10.0846 85.0326 10.8984 85.7617 11.9531C86.5039 13.0078 86.875 14.2383 86.875 15.6445V30H81.1719V26.875H81.0547C80.6641 27.5911 80.1562 28.2096 79.5312 28.7305C78.9193 29.2383 78.2227 29.6354 77.4414 29.9219C76.6602 30.1953 75.8073 30.332 74.8828 30.332ZM90.5664 30V9.0625H96.2695V12.5H96.3867C96.9336 11.3021 97.7409 10.3581 98.8086 9.66797C99.8763 8.97786 101.198 8.63281 102.773 8.63281C105.078 8.63281 106.855 9.32943 108.105 10.7227C109.368 12.1029 110 14.0234 110 16.4844V30H104.297V17.6562C104.297 16.2891 103.971 15.2344 103.32 14.4922C102.682 13.737 101.725 13.3594 100.449 13.3594C99.6029 13.3594 98.8672 13.5547 98.2422 13.9453C97.6172 14.3229 97.1289 14.8568 96.7773 15.5469C96.4388 16.237 96.2695 17.0443 96.2695 17.9688V30H90.5664ZM113.73 30V9.0625H119.434V30H113.73ZM116.582 6.36719C115.723 6.36719 115 6.07422 114.414 5.48828C113.828 4.90234 113.535 4.20573 113.535 3.39844C113.535 2.57812 113.828 1.88151 114.414 1.30859C115 0.722656 115.723 0.429688 116.582 0.429688C117.441 0.429688 118.164 0.722656 118.75 1.30859C119.336 1.88151 119.629 2.57812 119.629 3.39844C119.629 4.20573 119.336 4.90234 118.75 5.48828C118.164 6.07422 117.441 6.36719 116.582 6.36719ZM122.871 30V26.7578L133.398 13.457V13.3594H123.027V9.0625H139.922V12.6758L130.02 25.5859V25.7031H140.156V30H122.871ZM149.727 30.332C148.333 30.332 147.109 30.0651 146.055 29.5312C145 28.9844 144.173 28.2357 143.574 27.2852C142.988 26.3216 142.695 25.2279 142.695 24.0039V23.9648C142.695 22.6888 143.014 21.6016 143.652 20.7031C144.29 19.7917 145.215 19.0755 146.426 18.5547C147.637 18.0339 149.108 17.7148 150.84 17.5977L159.004 17.0898V20.6445L151.699 21.1133C150.605 21.1784 149.772 21.4388 149.199 21.8945C148.626 22.3372 148.34 22.9297 148.34 23.6719V23.7109C148.34 24.4792 148.633 25.0846 149.219 25.5273C149.805 25.957 150.592 26.1719 151.582 26.1719C152.428 26.1719 153.184 26.0091 153.848 25.6836C154.525 25.3451 155.052 24.8893 155.43 24.3164C155.82 23.7305 156.016 23.0729 156.016 22.3438V15.9961C156.016 15.0716 155.723 14.3424 155.137 13.8086C154.551 13.2617 153.698 12.9883 152.578 12.9883C151.51 12.9883 150.664 13.2096 150.039 13.6523C149.414 14.0951 149.03 14.6549 148.887 15.332L148.848 15.5078H143.633L143.652 15.2734C143.757 13.9844 144.18 12.8385 144.922 11.8359C145.677 10.8333 146.719 10.0521 148.047 9.49219C149.388 8.91927 150.977 8.63281 152.812 8.63281C154.622 8.63281 156.191 8.92578 157.52 9.51172C158.848 10.0846 159.876 10.8984 160.605 11.9531C161.348 13.0078 161.719 14.2383 161.719 15.6445V30H156.016V26.875H155.898C155.508 27.5911 155 28.2096 154.375 28.7305C153.763 29.2383 153.066 29.6354 152.285 29.9219C151.504 30.1953 150.651 30.332 149.727 30.332ZM173.73 30.4297C171.413 30.4297 169.694 29.9414 168.574 28.9648C167.454 27.9883 166.895 26.3802 166.895 24.1406V13.3594H163.984V9.0625H166.895V3.94531H172.656V9.0625H176.484V13.3594H172.656V23.5156C172.656 24.4922 172.871 25.1758 173.301 25.5664C173.743 25.944 174.395 26.1328 175.254 26.1328C175.514 26.1328 175.742 26.1263 175.938 26.1133C176.133 26.0872 176.315 26.0612 176.484 26.0352V30.2148C176.172 30.2669 175.781 30.3125 175.312 30.3516C174.857 30.4036 174.329 30.4297 173.73 30.4297ZM179.746 30V9.0625H185.449V30H179.746ZM182.598 6.36719C181.738 6.36719 181.016 6.07422 180.43 5.48828C179.844 4.90234 179.551 4.20573 179.551 3.39844C179.551 2.57812 179.844 1.88151 180.43 1.30859C181.016 0.722656 181.738 0.429688 182.598 0.429688C183.457 0.429688 184.18 0.722656 184.766 1.30859C185.352 1.88151 185.645 2.57812 185.645 3.39844C185.645 4.20573 185.352 4.90234 184.766 5.48828C184.18 6.07422 183.457 6.36719 182.598 6.36719ZM198.887 30.4297C196.764 30.4297 194.928 29.9935 193.379 29.1211C191.829 28.2487 190.632 26.9987 189.785 25.3711C188.939 23.7435 188.516 21.7969 188.516 19.5312V19.4922C188.516 17.2396 188.945 15.306 189.805 13.6914C190.664 12.0638 191.868 10.8138 193.418 9.94141C194.967 9.06901 196.784 8.63281 198.867 8.63281C200.964 8.63281 202.786 9.06901 204.336 9.94141C205.898 10.8008 207.109 12.0443 207.969 13.6719C208.828 15.2865 209.258 17.2266 209.258 19.4922V19.5312C209.258 21.8099 208.828 23.763 207.969 25.3906C207.122 27.0182 205.924 28.2682 204.375 29.1406C202.826 30 200.996 30.4297 198.887 30.4297ZM198.906 25.957C199.831 25.957 200.632 25.7096 201.309 25.2148C201.999 24.707 202.526 23.9779 202.891 23.0273C203.268 22.0638 203.457 20.8984 203.457 19.5312V19.4922C203.457 18.138 203.268 16.9857 202.891 16.0352C202.513 15.0846 201.979 14.362 201.289 13.8672C200.599 13.3594 199.792 13.1055 198.867 13.1055C197.956 13.1055 197.155 13.3594 196.465 13.8672C195.788 14.362 195.26 15.0846 194.883 16.0352C194.505 16.9857 194.316 18.138 194.316 19.4922V19.5312C194.316 20.8984 194.499 22.0638 194.863 23.0273C195.241 23.9779 195.775 24.707 196.465 25.2148C197.155 25.7096 197.969 25.957 198.906 25.957ZM212.207 30V9.0625H217.91V12.5H218.027C218.574 11.3021 219.382 10.3581 220.449 9.66797C221.517 8.97786 222.839 8.63281 224.414 8.63281C226.719 8.63281 228.496 9.32943 229.746 10.7227C231.009 12.1029 231.641 14.0234 231.641 16.4844V30H225.938V17.6562C225.938 16.2891 225.612 15.2344 224.961 14.4922C224.323 13.737 223.366 13.3594 222.09 13.3594C221.243 13.3594 220.508 13.5547 219.883 13.9453C219.258 14.3229 218.77 14.8568 218.418 15.5469C218.079 16.237 217.91 17.0443 217.91 17.9688V30H212.207ZM241.484 30.332C240.091 30.332 238.867 30.0651 237.812 29.5312C236.758 28.9844 235.931 28.2357 235.332 27.2852C234.746 26.3216 234.453 25.2279 234.453 24.0039V23.9648C234.453 22.6888 234.772 21.6016 235.41 20.7031C236.048 19.7917 236.973 19.0755 238.184 18.5547C239.395 18.0339 240.866 17.7148 242.598 17.5977L250.762 17.0898V20.6445L243.457 21.1133C242.363 21.1784 241.53 21.4388 240.957 21.8945C240.384 22.3372 240.098 22.9297 240.098 23.6719V23.7109C240.098 24.4792 240.391 25.0846 240.977 25.5273C241.562 25.957 242.35 26.1719 243.34 26.1719C244.186 26.1719 244.941 26.0091 245.605 25.6836C246.283 25.3451 246.81 24.8893 247.188 24.3164C247.578 23.7305 247.773 23.0729 247.773 22.3438V15.9961C247.773 15.0716 247.48 14.3424 246.895 13.8086C246.309 13.2617 245.456 12.9883 244.336 12.9883C243.268 12.9883 242.422 13.2096 241.797 13.6523C241.172 14.0951 240.788 14.6549 240.645 15.332L240.605 15.5078H235.391L235.41 15.2734C235.514 13.9844 235.938 12.8385 236.68 11.8359C237.435 10.8333 238.477 10.0521 239.805 9.49219C241.146 8.91927 242.734 8.63281 244.57 8.63281C246.38 8.63281 247.949 8.92578 249.277 9.51172C250.605 10.0846 251.634 10.8984 252.363 11.9531C253.105 13.0078 253.477 14.2383 253.477 15.6445V30H247.773V26.875H247.656C247.266 27.5911 246.758 28.2096 246.133 28.7305C245.521 29.2383 244.824 29.6354 244.043 29.9219C243.262 30.1953 242.409 30.332 241.484 30.332ZM257.305 30V1.81641H263.008V30H257.305ZM63.7891 78V49.8164H82.4609V54.6797H69.6875V61.4375H81.7383V66.0469H69.6875V73.1367H82.4609V78H63.7891ZM84.8047 78L91.3672 67.5703L84.8438 57.0625H91.2695L95.0391 64.1328H95.1562L98.8672 57.0625H105.078L98.5352 67.4141L105.02 78H98.8281L94.8438 70.7344H94.7266L90.8008 78H84.8047ZM107.363 84.8359V57.0625H113.066V60.7148H113.203C113.581 59.8685 114.076 59.1393 114.688 58.5273C115.312 57.9154 116.035 57.4466 116.855 57.1211C117.689 56.7956 118.6 56.6328 119.59 56.6328C121.361 56.6328 122.884 57.069 124.16 57.9414C125.436 58.8008 126.419 60.0443 127.109 61.6719C127.799 63.2995 128.145 65.2461 128.145 67.5117V67.5312C128.145 69.7969 127.799 71.7435 127.109 73.3711C126.432 74.9987 125.462 76.2487 124.199 77.1211C122.936 77.9935 121.426 78.4297 119.668 78.4297C118.678 78.4297 117.76 78.2669 116.914 77.9414C116.068 77.6159 115.332 77.1602 114.707 76.5742C114.082 75.9753 113.574 75.2591 113.184 74.4258H113.066V84.8359H107.363ZM117.715 73.7031C118.665 73.7031 119.486 73.4557 120.176 72.9609C120.866 72.4531 121.4 71.737 121.777 70.8125C122.155 69.888 122.344 68.7943 122.344 67.5312V67.5117C122.344 66.2357 122.155 65.1354 121.777 64.2109C121.4 63.2865 120.859 62.5833 120.156 62.1016C119.466 61.6068 118.652 61.3594 117.715 61.3594C116.79 61.3594 115.977 61.6133 115.273 62.1211C114.57 62.6159 114.023 63.3255 113.633 64.25C113.242 65.1615 113.047 66.2552 113.047 67.5312V67.5508C113.047 68.8008 113.242 69.888 113.633 70.8125C114.036 71.737 114.583 72.4531 115.273 72.9609C115.977 73.4557 116.79 73.7031 117.715 73.7031ZM140.645 78.4297C138.509 78.4297 136.673 77.9935 135.137 77.1211C133.6 76.2357 132.415 74.9792 131.582 73.3516C130.762 71.724 130.352 69.7969 130.352 67.5703V67.5508C130.352 65.3242 130.762 63.3971 131.582 61.7695C132.415 60.1289 133.581 58.8659 135.078 57.9805C136.589 57.082 138.366 56.6328 140.41 56.6328C142.454 56.6328 144.219 57.069 145.703 57.9414C147.201 58.8008 148.353 60.0182 149.16 61.5938C149.98 63.1693 150.391 65.0117 150.391 67.1211V68.8789H133.145V65.2852H147.695L144.98 68.6445V66.457C144.98 65.2331 144.792 64.2109 144.414 63.3906C144.036 62.5573 143.509 61.9323 142.832 61.5156C142.168 61.099 141.393 60.8906 140.508 60.8906C139.622 60.8906 138.835 61.1055 138.145 61.5352C137.467 61.9648 136.934 62.5964 136.543 63.4297C136.165 64.25 135.977 65.2591 135.977 66.457V68.6641C135.977 69.8229 136.165 70.8125 136.543 71.6328C136.934 72.4531 137.487 73.0846 138.203 73.5273C138.919 73.957 139.772 74.1719 140.762 74.1719C141.543 74.1719 142.22 74.0482 142.793 73.8008C143.366 73.5534 143.835 73.2409 144.199 72.8633C144.564 72.4857 144.811 72.1016 144.941 71.7109L144.98 71.5938H150.215L150.156 71.8086C150 72.5768 149.694 73.3516 149.238 74.1328C148.783 74.9141 148.164 75.6302 147.383 76.2812C146.615 76.9323 145.671 77.4531 144.551 77.8438C143.444 78.2344 142.142 78.4297 140.645 78.4297ZM153.34 78V57.0625H159.043V60.7148H159.16C159.473 59.4258 160.039 58.4232 160.859 57.707C161.68 56.9909 162.702 56.6328 163.926 56.6328C164.238 56.6328 164.538 56.6523 164.824 56.6914C165.111 56.7305 165.358 56.7826 165.566 56.8477V61.8672C165.332 61.776 165.033 61.7044 164.668 61.6523C164.303 61.5872 163.913 61.5547 163.496 61.5547C162.559 61.5547 161.758 61.737 161.094 62.1016C160.43 62.4661 159.922 63 159.57 63.7031C159.219 64.4062 159.043 65.2656 159.043 66.2812V78H153.34ZM168.027 78V57.0625H173.73V78H168.027ZM170.879 54.3672C170.02 54.3672 169.297 54.0742 168.711 53.4883C168.125 52.9023 167.832 52.2057 167.832 51.3984C167.832 50.5781 168.125 49.8815 168.711 49.3086C169.297 48.7227 170.02 48.4297 170.879 48.4297C171.738 48.4297 172.461 48.7227 173.047 49.3086C173.633 49.8815 173.926 50.5781 173.926 51.3984C173.926 52.2057 173.633 52.9023 173.047 53.4883C172.461 54.0742 171.738 54.3672 170.879 54.3672ZM187.09 78.4297C184.954 78.4297 183.118 77.9935 181.582 77.1211C180.046 76.2357 178.861 74.9792 178.027 73.3516C177.207 71.724 176.797 69.7969 176.797 67.5703V67.5508C176.797 65.3242 177.207 63.3971 178.027 61.7695C178.861 60.1289 180.026 58.8659 181.523 57.9805C183.034 57.082 184.811 56.6328 186.855 56.6328C188.9 56.6328 190.664 57.069 192.148 57.9414C193.646 58.8008 194.798 60.0182 195.605 61.5938C196.426 63.1693 196.836 65.0117 196.836 67.1211V68.8789H179.59V65.2852H194.141L191.426 68.6445V66.457C191.426 65.2331 191.237 64.2109 190.859 63.3906C190.482 62.5573 189.954 61.9323 189.277 61.5156C188.613 61.099 187.839 60.8906 186.953 60.8906C186.068 60.8906 185.28 61.1055 184.59 61.5352C183.913 61.9648 183.379 62.5964 182.988 63.4297C182.611 64.25 182.422 65.2591 182.422 66.457V68.6641C182.422 69.8229 182.611 70.8125 182.988 71.6328C183.379 72.4531 183.932 73.0846 184.648 73.5273C185.365 73.957 186.217 74.1719 187.207 74.1719C187.988 74.1719 188.665 74.0482 189.238 73.8008C189.811 73.5534 190.28 73.2409 190.645 72.8633C191.009 72.4857 191.257 72.1016 191.387 71.7109L191.426 71.5938H196.66L196.602 71.8086C196.445 72.5768 196.139 73.3516 195.684 74.1328C195.228 74.9141 194.609 75.6302 193.828 76.2812C193.06 76.9323 192.116 77.4531 190.996 77.8438C189.889 78.2344 188.587 78.4297 187.09 78.4297ZM199.785 78V57.0625H205.488V60.5H205.605C206.152 59.3021 206.96 58.3581 208.027 57.668C209.095 56.9779 210.417 56.6328 211.992 56.6328C214.297 56.6328 216.074 57.3294 217.324 58.7227C218.587 60.1029 219.219 62.0234 219.219 64.4844V78H213.516V65.6562C213.516 64.2891 213.19 63.2344 212.539 62.4922C211.901 61.737 210.944 61.3594 209.668 61.3594C208.822 61.3594 208.086 61.5547 207.461 61.9453C206.836 62.3229 206.348 62.8568 205.996 63.5469C205.658 64.237 205.488 65.0443 205.488 65.9688V78H199.785ZM232.402 78.4297C230.28 78.4297 228.444 77.987 226.895 77.1016C225.345 76.2161 224.154 74.9596 223.32 73.332C222.487 71.6914 222.07 69.7513 222.07 67.5117V67.4922C222.07 65.2526 222.487 63.3255 223.32 61.7109C224.167 60.0833 225.358 58.8333 226.895 57.9609C228.444 57.0755 230.26 56.6328 232.344 56.6328C234.245 56.6328 235.892 56.9909 237.285 57.707C238.678 58.4102 239.766 59.3672 240.547 60.5781C241.341 61.7891 241.777 63.1497 241.855 64.6602V64.7969H236.562L236.523 64.6211C236.354 63.6185 235.924 62.7852 235.234 62.1211C234.544 61.444 233.607 61.1055 232.422 61.1055C231.497 61.1055 230.69 61.3659 230 61.8867C229.323 62.3945 228.796 63.1302 228.418 64.0938C228.053 65.0443 227.871 66.1836 227.871 67.5117V67.5312C227.871 68.8984 228.053 70.0638 228.418 71.0273C228.796 71.9779 229.323 72.707 230 73.2148C230.69 73.7096 231.504 73.957 232.441 73.957C233.587 73.957 234.505 73.638 235.195 73C235.898 72.349 236.348 71.4961 236.543 70.4414L236.562 70.2656H241.875V70.3828C241.784 71.9062 241.341 73.2734 240.547 74.4844C239.753 75.6953 238.659 76.6589 237.266 77.375C235.885 78.0781 234.264 78.4297 232.402 78.4297ZM254.16 78.4297C252.025 78.4297 250.189 77.9935 248.652 77.1211C247.116 76.2357 245.931 74.9792 245.098 73.3516C244.277 71.724 243.867 69.7969 243.867 67.5703V67.5508C243.867 65.3242 244.277 63.3971 245.098 61.7695C245.931 60.1289 247.096 58.8659 248.594 57.9805C250.104 57.082 251.882 56.6328 253.926 56.6328C255.97 56.6328 257.734 57.069 259.219 57.9414C260.716 58.8008 261.868 60.0182 262.676 61.5938C263.496 63.1693 263.906 65.0117 263.906 67.1211V68.8789H246.66V65.2852H261.211L258.496 68.6445V66.457C258.496 65.2331 258.307 64.2109 257.93 63.3906C257.552 62.5573 257.025 61.9323 256.348 61.5156C255.684 61.099 254.909 60.8906 254.023 60.8906C253.138 60.8906 252.35 61.1055 251.66 61.5352C250.983 61.9648 250.449 62.5964 250.059 63.4297C249.681 64.25 249.492 65.2591 249.492 66.457V68.6641C249.492 69.8229 249.681 70.8125 250.059 71.6328C250.449 72.4531 251.003 73.0846 251.719 73.5273C252.435 73.957 253.288 74.1719 254.277 74.1719C255.059 74.1719 255.736 74.0482 256.309 73.8008C256.882 73.5534 257.35 73.2409 257.715 72.8633C258.079 72.4857 258.327 72.1016 258.457 71.7109L258.496 71.5938H263.73L263.672 71.8086C263.516 72.5768 263.21 73.3516 262.754 74.1328C262.298 74.9141 261.68 75.6302 260.898 76.2812C260.13 76.9323 259.186 77.4531 258.066 77.8438C256.96 78.2344 255.658 78.4297 254.16 78.4297Z" fill="#1F4096"/>
</svg>
