<svg width="513" height="207" viewBox="0 0 513 207" fill="none" xmlns="http://www.w3.org/2000/svg">
<path d="M22.1968 139.113L21.3734 124.386L43.4639 123.15C48.8721 122.848 52.9971 121.24 55.8389 118.327C58.72 115.37 60.0175 111.333 59.7313 106.216L59.7244 106.091C59.4382 100.974 57.7 97.1276 54.5095 94.5517C51.3607 91.9734 47.0821 90.8355 41.6739 91.1379L19.5834 92.3731L18.7495 77.4589L45.4578 75.9655C51.7812 75.6119 57.3864 76.5922 62.2732 78.9063C67.1577 81.1789 71.0395 84.5507 73.9186 89.022C76.8393 93.4909 78.4718 98.8039 78.816 104.961L78.823 105.086C79.1696 111.284 78.1408 116.767 75.7365 121.534C73.3738 126.298 69.8921 130.082 65.2914 132.885C60.6907 135.687 55.2286 137.266 48.9051 137.619L22.1968 139.113ZM14.2993 168.036L9.26432 77.9893L28.1099 76.9355L33.1448 166.982L14.2993 168.036Z" fill="white"/>
<path d="M97.369 121.888L106.623 55.5298L124.698 58.0504L123.084 69.6259L123.455 69.6777C125.015 65.7304 127.254 62.8031 130.17 60.896C133.086 58.9888 136.484 58.3057 140.363 58.8467C141.354 58.9848 142.294 59.1791 143.185 59.4295C144.075 59.6799 144.836 59.9543 145.468 60.2527L143.249 76.1613C142.547 75.7688 141.629 75.4095 140.497 75.0833C139.37 74.7158 138.147 74.44 136.826 74.2558C133.855 73.8415 131.236 74.0653 128.97 74.9273C126.705 75.7893 124.859 77.2568 123.434 79.3298C122.009 81.4029 121.072 84.0488 120.623 87.2677L115.444 124.408L97.369 121.888Z" fill="white"/>
<path d="M160.665 168.654C153.886 168.232 148.11 166.473 143.334 163.379C138.559 160.284 134.982 156.054 132.603 150.687C130.223 145.321 129.259 139.019 129.709 131.783L129.717 131.658C130.165 124.464 131.922 118.374 134.988 113.388C138.057 108.361 142.152 104.608 147.274 102.13C152.397 99.6522 158.285 98.6204 164.938 99.0348C171.634 99.4518 177.369 101.208 182.144 104.302C186.964 107.357 190.584 111.57 193.005 116.939C195.428 122.267 196.415 128.548 195.964 135.784L195.956 135.909C195.503 143.187 193.742 149.339 190.674 154.367C187.647 159.396 183.572 163.15 178.45 165.628C173.33 168.065 167.402 169.073 160.665 168.654ZM161.617 154.373C164.57 154.557 167.176 153.926 169.437 152.48C171.742 150.996 173.572 148.772 174.925 145.809C176.323 142.806 177.158 139.122 177.43 134.755L177.437 134.631C177.707 130.306 177.333 126.588 176.316 123.477C175.299 120.366 173.738 117.952 171.632 116.234C169.529 114.475 167.001 113.503 164.049 113.32C161.138 113.138 158.53 113.79 156.224 115.275C153.964 116.72 152.136 118.923 150.741 121.884C149.345 124.845 148.513 128.487 148.244 132.812L148.236 132.937C147.964 137.304 148.315 141.062 149.287 144.212C150.304 147.323 151.864 149.758 153.967 151.517C156.073 153.234 158.623 154.186 161.617 154.373Z" fill="white"/>
<path d="M204.343 191.968C203.512 191.909 202.62 191.824 201.667 191.714C200.672 191.601 199.906 191.505 199.369 191.424L200.35 177.709C200.679 177.775 201.052 177.822 201.467 177.852C201.838 177.92 202.232 177.969 202.647 177.999C205.681 178.216 207.883 177.809 209.251 176.779C210.617 175.791 211.396 173.946 211.589 171.245L216.431 103.543L234.634 104.844L229.757 173.045C229.273 179.819 226.869 184.807 222.547 188.006C218.266 191.209 212.198 192.53 204.343 191.968ZM226.148 95.5903C223.405 95.3942 221.165 94.2941 219.428 92.2902C217.692 90.2862 216.916 87.9959 217.1 85.4191C217.287 82.8008 218.381 80.6442 220.382 78.9492C222.386 77.2128 224.76 76.4426 227.503 76.6387C230.246 76.8349 232.486 77.9349 234.222 79.9389C235.962 81.9013 236.738 84.1917 236.55 86.81C236.366 89.3867 235.272 91.5434 233.268 93.2798C231.264 95.0163 228.891 95.7865 226.148 95.5903Z" fill="white"/>
<path d="M285.347 136.546C278.531 137.033 272.572 136.06 267.469 133.626C262.363 131.15 258.294 127.41 255.263 122.405C252.273 117.397 250.524 111.34 250.016 104.233L250.012 104.171C249.504 97.0637 250.373 90.8191 252.62 85.4369C254.906 80.0102 258.337 75.7129 262.915 72.5452C267.531 69.3329 273.102 67.4936 279.627 67.0272C286.152 66.5608 291.883 67.5506 296.82 69.9965C301.795 72.3979 305.751 76.0209 308.687 80.8656C311.665 85.7073 313.394 91.4945 313.876 98.2273L314.277 103.838L259.23 107.773L258.41 96.3018L304.854 92.9822L296.955 104.324L296.456 97.342C296.176 93.4353 295.341 90.2159 293.948 87.6837C292.553 85.11 290.727 83.2354 288.471 82.0599C286.256 80.8815 283.736 80.3932 280.91 80.5952C278.084 80.7972 275.618 81.6627 273.513 83.1917C271.45 84.7176 269.89 86.8551 268.834 89.6041C267.816 92.3086 267.443 95.5726 267.717 99.3962L268.22 106.441C268.484 110.14 269.313 113.255 270.705 115.787C272.139 118.317 274.05 120.206 276.436 121.456C278.82 122.664 281.591 123.155 284.75 122.929C287.244 122.751 289.377 122.202 291.149 121.281C292.921 120.361 294.346 119.257 295.424 117.968C296.501 116.68 297.203 115.397 297.53 114.121L297.628 113.738L314.335 112.544L314.197 113.243C313.873 115.73 313.074 118.273 311.797 120.871C310.521 123.468 308.71 125.895 306.365 128.151C304.061 130.405 301.167 132.283 297.682 133.785C294.238 135.284 290.127 136.205 285.347 136.546Z" fill="white"/>
<path d="M370.863 150.906C364.076 150.649 358.259 149.011 353.412 145.993C348.564 142.974 344.906 138.812 342.438 133.506C339.972 128.159 338.874 121.905 339.145 114.743L339.148 114.681C339.419 107.519 340.984 101.408 343.844 96.3454C346.748 91.2432 350.709 87.3902 355.728 84.7865C360.789 82.1427 366.651 80.9468 373.313 81.1989C379.392 81.4289 384.616 82.7732 388.984 85.2318C393.355 87.6488 396.715 90.8406 399.067 94.8074C401.46 98.7757 402.691 103.18 402.758 108.019L402.741 108.456L385.816 107.816L385.712 107.249C385.292 104.022 384.019 101.306 381.893 99.0986C379.768 96.8499 376.811 95.654 373.022 95.5106C370.066 95.3987 367.453 96.1338 365.183 97.7158C362.956 99.2577 361.181 101.546 359.857 104.582C358.576 107.577 357.855 111.198 357.695 115.445L357.692 115.508C357.527 119.88 357.969 123.628 359.018 126.753C360.111 129.839 361.709 132.234 363.812 133.94C365.959 135.606 368.532 136.495 371.529 136.609C375.193 136.747 378.167 135.838 380.451 133.881C382.779 131.885 384.318 129.212 385.07 125.863L385.154 125.303L402.142 125.946L402.128 126.321C401.652 131.181 400.071 135.499 397.385 139.276C394.698 143.052 391.084 146 386.542 148.122C382.044 150.203 376.817 151.131 370.863 150.906Z" fill="white"/>
<path d="M456.563 132.426C449.468 134.587 443.751 134.695 439.413 132.749C435.075 130.804 431.861 126.403 429.773 119.548L419.722 86.5443L410.813 89.2575L406.807 76.104L415.716 73.3908L410.945 57.7262L428.582 52.3545L433.353 68.0191L445.072 64.45L449.078 77.6035L437.359 81.1725L446.828 112.263C447.739 115.252 449.034 117.144 450.713 117.939C452.421 118.683 454.589 118.654 457.22 117.852C458.017 117.61 458.709 117.377 459.295 117.155C459.868 116.893 460.402 116.644 460.896 116.406L464.793 129.201C463.885 129.652 462.731 130.155 461.333 130.712C459.986 131.296 458.396 131.868 456.563 132.426Z" fill="white"/>
</svg>
