<svg width="513" height="221" viewBox="0 0 513 221" fill="none" xmlns="http://www.w3.org/2000/svg">
<path d="M22.1968 153.113L21.3734 138.386L43.4639 137.15C48.8721 136.848 52.9971 135.24 55.8389 132.327C58.72 129.37 60.0175 125.333 59.7313 120.216L59.7244 120.091C59.4382 114.974 57.7 111.128 54.5095 108.552C51.3607 105.973 47.0821 104.835 41.6739 105.138L19.5834 106.373L18.7495 91.4588L45.4578 89.9655C51.7812 89.6119 57.3864 90.5922 62.2732 92.9063C67.1577 95.1788 71.0395 98.5507 73.9186 103.022C76.8393 107.491 78.4718 112.804 78.816 118.961L78.823 119.086C79.1696 125.284 78.1408 130.767 75.7365 135.534C73.3738 140.298 69.8921 144.082 65.2914 146.884C60.6907 149.687 55.2286 151.266 48.9051 151.619L22.1968 153.113ZM14.2993 182.036L9.26432 91.9892L28.1099 90.9355L33.1448 180.982L14.2993 182.036Z" fill="#1F4096"/>
<path d="M97.369 135.888L106.623 69.5298L124.698 72.0504L123.084 83.6259L123.455 83.6777C125.015 79.7304 127.254 76.8031 130.17 74.896C133.086 72.9888 136.484 72.3057 140.363 72.8467C141.354 72.9848 142.294 73.1791 143.185 73.4295C144.075 73.6799 144.836 73.9543 145.468 74.2527L143.249 90.1613C142.547 89.7688 141.629 89.4095 140.497 89.0833C139.37 88.7158 138.147 88.44 136.826 88.2558C133.855 87.8415 131.236 88.0653 128.97 88.9273C126.705 89.7893 124.859 91.2568 123.434 93.3298C122.009 95.4029 121.072 98.0488 120.623 101.268L115.444 138.408L97.369 135.888Z" fill="#1F4096"/>
<path d="M160.665 182.654C153.886 182.232 148.109 180.473 143.334 177.379C138.559 174.284 134.982 170.054 132.602 164.687C130.223 159.321 129.259 153.019 129.709 145.783L129.717 145.658C130.165 138.464 131.922 132.374 134.988 127.388C138.056 122.361 142.152 118.608 147.274 116.13C152.396 113.652 158.284 112.62 164.938 113.035C171.633 113.452 177.369 115.208 182.144 118.302C186.963 121.357 190.583 125.57 193.004 130.939C195.428 136.267 196.414 142.548 195.964 149.784L195.956 149.909C195.503 157.187 193.742 163.339 190.673 168.367C187.646 173.396 183.572 177.15 178.45 179.628C173.33 182.065 167.402 183.073 160.665 182.654ZM161.617 168.373C164.569 168.557 167.176 167.926 169.437 166.48C171.742 164.996 173.571 162.772 174.925 159.809C176.323 156.806 177.157 153.122 177.429 148.755L177.437 148.631C177.706 144.306 177.333 140.588 176.316 137.477C175.299 134.366 173.738 131.952 171.632 130.234C169.529 128.475 167.001 127.503 164.048 127.32C161.137 127.138 158.529 127.79 156.224 129.275C153.963 130.72 152.135 132.923 150.74 135.884C149.345 138.845 148.513 142.487 148.244 146.812L148.236 146.937C147.964 151.304 148.314 155.062 149.287 158.212C150.304 161.323 151.864 163.758 153.967 165.517C156.073 167.234 158.623 168.186 161.617 168.373Z" fill="#1F4096"/>
<path d="M204.343 205.968C203.512 205.909 202.62 205.824 201.667 205.714C200.672 205.601 199.906 205.505 199.369 205.424L200.35 191.709C200.679 191.775 201.052 191.822 201.467 191.852C201.838 191.92 202.232 191.969 202.647 191.999C205.681 192.216 207.883 191.809 209.251 190.779C210.617 189.791 211.396 187.946 211.589 185.245L216.431 117.543L234.634 118.844L229.757 187.045C229.273 193.819 226.869 198.807 222.547 202.006C218.266 205.209 212.198 206.53 204.343 205.968ZM226.148 109.59C223.405 109.394 221.165 108.294 219.428 106.29C217.692 104.286 216.916 101.996 217.1 99.4191C217.287 96.8008 218.381 94.6442 220.382 92.9492C222.386 91.2128 224.76 90.4426 227.503 90.6387C230.246 90.8349 232.486 91.9349 234.222 93.9389C235.962 95.9013 236.738 98.1917 236.55 100.81C236.366 103.387 235.272 105.543 233.268 107.28C231.264 109.016 228.891 109.786 226.148 109.59Z" fill="#1F4096"/>
<path d="M285.348 150.546C278.532 151.033 272.572 150.06 267.469 147.626C262.363 145.15 258.294 141.41 255.263 136.405C252.273 131.397 250.525 125.34 250.017 118.233L250.012 118.171C249.504 111.064 250.374 104.819 252.621 99.437C254.906 94.0102 258.338 89.713 262.915 86.5452C267.531 83.333 273.102 81.4936 279.627 81.0273C286.152 80.5609 291.883 81.5506 296.82 83.9966C301.795 86.3979 305.751 90.021 308.687 94.8656C311.665 99.7073 313.395 105.495 313.876 112.227L314.277 117.838L259.23 121.773L258.41 110.302L304.854 106.982L296.955 118.324L296.456 111.342C296.177 107.435 295.341 104.216 293.948 101.684C292.553 99.11 290.727 97.2354 288.471 96.06C286.256 94.8815 283.736 94.3933 280.91 94.5953C278.084 94.7973 275.618 95.6628 273.514 97.1917C271.451 98.7177 269.891 100.855 268.834 103.604C267.816 106.309 267.443 109.573 267.717 113.396L268.22 120.441C268.485 124.14 269.313 127.255 270.705 129.787C272.139 132.317 274.05 134.206 276.437 135.456C278.82 136.664 281.592 137.155 284.75 136.929C287.244 136.751 289.377 136.202 291.149 135.281C292.921 134.361 294.346 133.257 295.424 131.968C296.501 130.68 297.203 129.397 297.53 128.121L297.628 127.738L314.335 126.544L314.197 127.243C313.874 129.73 313.074 132.273 311.797 134.871C310.521 137.468 308.71 139.895 306.365 142.152C304.062 144.405 301.167 146.283 297.682 147.785C294.239 149.284 290.127 150.205 285.348 150.546Z" fill="#1F4096"/>
<path d="M370.864 164.906C364.077 164.649 358.259 163.011 353.412 159.993C348.564 156.974 344.906 152.812 342.439 147.506C339.972 142.159 338.875 135.905 339.146 128.743L339.148 128.681C339.419 121.519 340.985 115.408 343.845 110.345C346.748 105.243 350.709 101.39 355.728 98.7865C360.79 96.1427 366.652 94.9468 373.314 95.1989C379.393 95.4289 384.616 96.7732 388.985 99.2318C393.355 101.649 396.716 104.841 399.067 108.807C401.461 112.776 402.691 117.18 402.758 122.019L402.741 122.456L385.816 121.816L385.712 121.249C385.292 118.022 384.019 115.306 381.893 113.099C379.768 110.85 376.811 109.654 373.022 109.511C370.066 109.399 367.453 110.134 365.183 111.716C362.957 113.258 361.181 115.546 359.857 118.582C358.576 121.577 357.856 125.198 357.695 129.445L357.693 129.508C357.527 133.88 357.969 137.628 359.018 140.753C360.111 143.839 361.709 146.234 363.813 147.94C365.959 149.606 368.532 150.495 371.53 150.609C375.194 150.747 378.168 149.838 380.452 147.881C382.779 145.885 384.318 143.212 385.071 139.863L385.154 139.303L402.142 139.946L402.128 140.321C401.652 145.181 400.071 149.499 397.385 153.276C394.698 157.052 391.084 160 386.543 162.122C382.044 164.203 376.818 165.131 370.864 164.906Z" fill="#1F4096"/>
<path d="M456.563 146.426C449.468 148.587 443.751 148.695 439.413 146.749C435.075 144.804 431.862 140.403 429.774 133.548L419.722 100.544L410.813 103.258L406.807 90.1042L415.716 87.391L410.945 71.7264L428.583 66.3546L433.354 82.0192L445.072 78.4501L449.078 91.6036L437.36 95.1726L446.828 126.263C447.739 129.252 449.034 131.144 450.713 131.94C452.421 132.683 454.59 132.654 457.22 131.852C458.018 131.61 458.709 131.377 459.295 131.155C459.868 130.894 460.402 130.644 460.896 130.406L464.793 143.201C463.885 143.652 462.732 144.156 461.333 144.712C459.987 145.296 458.397 145.868 456.563 146.426Z" fill="#1F4096"/>
<path d="M19.9863 34.4219C18.0879 34.4219 16.4238 34.1348 14.9941 33.5605C13.5762 32.9863 12.4512 32.166 11.6191 31.0996C10.7871 30.0215 10.3184 28.7383 10.2129 27.25L10.1953 26.9863H14.0449L14.0801 27.2148C14.1973 27.9883 14.5195 28.6621 15.0469 29.2363C15.5859 29.7988 16.2891 30.2324 17.1562 30.5371C18.0234 30.8418 19.0195 30.9941 20.1445 30.9941C21.2812 30.9941 22.2598 30.8359 23.0801 30.5195C23.9004 30.2031 24.5332 29.752 24.9785 29.166C25.4355 28.5801 25.6641 27.8945 25.6641 27.1094V27.0918C25.6641 26.0723 25.2949 25.2637 24.5566 24.666C23.8301 24.0566 22.623 23.5703 20.9355 23.207L18.1758 22.627C15.6914 22.0996 13.8398 21.2559 12.6211 20.0957C11.4023 18.9238 10.793 17.4004 10.793 15.5254V15.5078C10.8047 14.0664 11.2031 12.8008 11.9883 11.7109C12.7734 10.6094 13.8574 9.75391 15.2402 9.14453C16.623 8.52344 18.2109 8.21289 20.0039 8.21289C21.7617 8.21289 23.3145 8.51172 24.6621 9.10938C26.0098 9.70703 27.0762 10.5449 27.8613 11.623C28.6465 12.6895 29.0859 13.9375 29.1797 15.3672L29.1973 15.6484H25.3477L25.3125 15.4199C25.207 14.623 24.9141 13.9434 24.4336 13.3809C23.9648 12.8184 23.3496 12.3906 22.5879 12.0977C21.8262 11.793 20.9414 11.6406 19.9336 11.6406C18.8906 11.6406 17.9824 11.7988 17.209 12.1152C16.4355 12.4199 15.8379 12.8477 15.416 13.3984C14.9941 13.9492 14.7832 14.5996 14.7832 15.3496V15.3672C14.7832 16.3164 15.1582 17.0898 15.9082 17.6875C16.6582 18.2852 17.8242 18.7539 19.4062 19.0938L22.166 19.6914C23.9121 20.0547 25.3359 20.5469 26.4375 21.168C27.5391 21.7891 28.3535 22.5625 28.8809 23.4883C29.4082 24.4141 29.6719 25.5332 29.6719 26.8457V26.8633C29.6719 28.4102 29.2793 29.752 28.4941 30.8887C27.7207 32.0137 26.6074 32.8867 25.1543 33.5078C23.7129 34.1172 21.9902 34.4219 19.9863 34.4219ZM32.8887 34V15.5078H36.7207V34H32.8887ZM34.8047 12.6602C34.1953 12.6602 33.6738 12.4492 33.2402 12.0273C32.8066 11.5937 32.5898 11.0781 32.5898 10.4805C32.5898 9.85938 32.8066 9.33789 33.2402 8.91602C33.6738 8.49414 34.1953 8.2832 34.8047 8.2832C35.4258 8.2832 35.9473 8.49414 36.3691 8.91602C36.8027 9.33789 37.0195 9.85938 37.0195 10.4805C37.0195 11.0781 36.8027 11.5937 36.3691 12.0273C35.9473 12.4492 35.4258 12.6602 34.8047 12.6602ZM47.5312 34.3691C45.9609 34.3691 44.5957 33.9766 43.4355 33.1914C42.2754 32.4062 41.3789 31.2988 40.7461 29.8691C40.1133 28.4277 39.7969 26.7227 39.7969 24.7539V24.7363C39.7969 22.7676 40.1133 21.0684 40.7461 19.6387C41.3906 18.209 42.2871 17.1074 43.4355 16.334C44.5957 15.5488 45.9492 15.1562 47.4961 15.1562C48.3633 15.1562 49.1719 15.2969 49.9219 15.5781C50.6719 15.8594 51.334 16.2637 51.9082 16.791C52.4941 17.3066 52.9688 17.9277 53.332 18.6543H53.4023V8.63477H57.2344V34H53.4023V30.8711H53.332C52.9688 31.5977 52.5 32.2188 51.9258 32.7344C51.3633 33.25 50.7129 33.6543 49.9746 33.9473C49.2363 34.2285 48.4219 34.3691 47.5312 34.3691ZM48.5332 31.082C49.4941 31.082 50.3379 30.8242 51.0645 30.3086C51.8027 29.7812 52.377 29.043 52.7871 28.0938C53.209 27.1445 53.4199 26.0312 53.4199 24.7539V24.7363C53.4199 23.459 53.209 22.3516 52.7871 21.4141C52.3652 20.4648 51.791 19.7324 51.0645 19.2168C50.3379 18.6895 49.4941 18.4258 48.5332 18.4258C47.5371 18.4258 46.6758 18.6836 45.9492 19.1992C45.2227 19.7031 44.6602 20.4297 44.2617 21.3789C43.875 22.3164 43.6816 23.4355 43.6816 24.7363V24.7539C43.6816 26.0547 43.875 27.1855 44.2617 28.1465C44.6602 29.0957 45.2227 29.8223 45.9492 30.3262C46.6758 30.8301 47.5371 31.082 48.5332 31.082ZM69.0117 34.3691C67.207 34.3691 65.6484 33.9824 64.3359 33.209C63.0352 32.4238 62.0332 31.3164 61.3301 29.8867C60.6387 28.4453 60.293 26.752 60.293 24.8066V24.7891C60.293 22.8672 60.6445 21.1855 61.3477 19.7441C62.0508 18.291 63.041 17.166 64.3184 16.3691C65.5957 15.5605 67.0957 15.1562 68.8184 15.1562C70.5527 15.1562 72.041 15.543 73.2832 16.3164C74.5371 17.0781 75.5039 18.1621 76.1836 19.5684C76.8633 20.9629 77.2031 22.5859 77.2031 24.4375V25.7207H62.1738V23.0312H75.3574L73.4766 25.5449V24.0684C73.4766 22.7676 73.2773 21.6895 72.8789 20.834C72.4922 19.9668 71.9473 19.3223 71.2441 18.9004C70.5527 18.4785 69.75 18.2676 68.8359 18.2676C67.9336 18.2676 67.125 18.4902 66.4102 18.9355C65.6953 19.3809 65.1328 20.0371 64.7227 20.9043C64.3125 21.7598 64.1074 22.8145 64.1074 24.0684V25.5449C64.1074 26.7402 64.3066 27.7656 64.7051 28.6211C65.1152 29.4648 65.6953 30.1152 66.4453 30.5723C67.1953 31.0176 68.0801 31.2402 69.0996 31.2402C69.8496 31.2402 70.5117 31.1289 71.0859 30.9062C71.6602 30.6719 72.1348 30.3672 72.5098 29.9922C72.8965 29.6055 73.166 29.1777 73.3184 28.709L73.3711 28.5684H76.9922L76.957 28.7617C76.8047 29.4883 76.5176 30.1855 76.0957 30.8535C75.6738 31.5215 75.123 32.125 74.4434 32.6641C73.7754 33.1914 72.9844 33.6074 72.0703 33.9121C71.1562 34.2168 70.1367 34.3691 69.0117 34.3691Z" fill="#1F4096"/>
</svg>
