<svg width="591" height="203" viewBox="0 0 591 203" fill="none" xmlns="http://www.w3.org/2000/svg">
<path d="M35.8281 169.832L31.662 95.3232L5.64015 96.7782L4.77133 81.2399L75.723 77.2727L76.5918 92.8109L50.5076 94.2694L54.6737 168.778L35.8281 169.832Z" fill="white"/>
<path d="M92.5337 150.702L101.788 84.3442L119.863 86.8649L110.609 153.223L92.5337 150.702ZM112.016 77.0622C109.293 76.6824 107.132 75.4345 105.534 73.3185C103.936 71.2025 103.315 68.8652 103.672 66.3066C104.035 63.7068 105.271 61.6285 107.381 60.0717C109.497 58.4736 111.917 57.8645 114.641 58.2444C117.364 58.6242 119.525 59.8721 121.123 61.9881C122.727 64.0628 123.348 66.4001 122.985 69C122.628 71.5585 121.392 73.6368 119.276 75.2349C117.16 76.833 114.74 77.4421 112.016 77.0622Z" fill="white"/>
<path d="M140.853 156.133L145.018 89.2622L163.232 90.3967L162.533 101.625L162.907 101.648C164.518 97.9078 167.037 94.9962 170.465 92.9136C173.934 90.8336 177.915 89.9334 182.406 90.2132C185.525 90.4074 188.298 91.1229 190.726 92.3595C193.154 93.5961 195.157 95.2864 196.735 97.4303C198.355 99.5768 199.426 102.148 199.949 105.145L200.323 105.168C201.498 102.403 203.146 100.063 205.269 98.1497C207.437 96.1973 209.927 94.7452 212.742 93.7933C215.598 92.844 218.669 92.4717 221.954 92.6763C226.321 92.9483 230.089 94.1222 233.257 96.1982C236.426 98.2742 238.82 101.053 240.44 104.536C242.06 108.018 242.729 112.026 242.447 116.559L239.599 162.283L221.384 161.148L223.949 119.978C224.109 117.4 223.808 115.189 223.047 113.347C222.326 111.507 221.184 110.079 219.619 109.063C218.095 108.049 216.149 107.469 213.778 107.321C211.491 107.179 209.442 107.573 207.63 108.504C205.86 109.437 204.439 110.81 203.366 112.622C202.293 114.434 201.679 116.587 201.523 119.082L198.99 159.754L181.462 158.662L184.061 116.93C184.211 114.518 183.903 112.433 183.136 110.673C182.368 108.914 181.201 107.547 179.634 106.572C178.11 105.559 176.226 104.983 173.98 104.843C171.693 104.7 169.642 105.115 167.828 106.088C166.015 107.06 164.549 108.472 163.432 110.323C162.356 112.176 161.739 114.371 161.581 116.908L159.068 157.267L140.853 156.133Z" fill="white"/>
<path d="M287.458 156.659C280.642 156.172 274.881 154.361 270.176 151.225C265.474 148.048 261.979 143.767 259.691 138.382C257.444 133 256.575 126.755 257.083 119.648L257.087 119.586C257.596 112.479 259.345 106.422 262.334 101.414C265.369 96.3676 269.377 92.6022 274.358 90.1179C279.384 87.595 285.16 86.5668 291.685 87.0334C298.21 87.5 303.742 89.295 308.28 92.4183C312.864 95.5031 316.264 99.652 318.481 104.865C320.74 110.081 321.629 116.056 321.147 122.788L320.746 128.399L265.699 124.463L266.519 112.992L312.963 116.313L303.531 126.416L304.03 119.434C304.31 115.527 303.94 112.222 302.922 109.517C301.907 106.771 300.367 104.656 298.301 103.171C296.276 101.69 293.851 100.848 291.025 100.646C288.199 100.444 285.635 100.95 283.334 102.164C281.075 103.381 279.227 105.275 277.79 107.845C276.397 110.377 275.565 113.555 275.291 117.379L274.787 124.423C274.523 128.122 274.9 131.324 275.918 134.028C276.977 136.736 278.599 138.878 280.784 140.454C282.972 141.989 285.645 142.87 288.804 143.096C291.297 143.274 293.487 143.034 295.372 142.375C297.257 141.716 298.825 140.825 300.074 139.703C301.324 138.581 302.202 137.412 302.706 136.195L302.858 135.83L319.565 137.024L319.329 137.697C318.655 140.113 317.502 142.516 315.869 144.906C314.236 147.295 312.098 149.44 309.456 151.34C306.855 153.242 303.723 154.689 300.06 155.681C296.438 156.675 292.237 157.001 287.458 156.659Z" fill="white"/>
<path d="M337.057 163.081L330.627 73.1228L348.83 71.8216L355.26 161.78L337.057 163.081Z" fill="white"/>
<path d="M375.48 142.151L378.014 75.1989L396.25 75.8889L393.717 142.841L375.48 142.151ZM387.458 66.9251C384.71 66.8211 382.435 65.7968 380.632 63.8523C378.829 61.9077 377.977 59.6447 378.074 57.0632C378.174 54.4401 379.195 52.2479 381.138 50.4868C383.082 48.6841 385.428 47.8347 388.177 47.9387C390.925 48.0426 393.2 49.0669 395.003 51.0115C396.807 52.9144 397.66 55.1774 397.56 57.8005C397.463 60.382 396.442 62.5741 394.497 64.3769C392.552 66.1797 390.206 67.029 387.458 66.9251Z" fill="white"/>
<path d="M415.205 143.858L431.287 78.8168L449.003 83.1973L446.363 93.8757L446.727 93.9657C449.346 90.6645 452.579 88.3521 456.425 87.0284C460.272 85.7047 464.643 85.6479 469.537 86.8581C476.697 88.6283 481.683 92.1574 484.496 97.4456C487.359 102.703 487.846 109.154 485.955 116.799L475.574 158.785L457.858 154.404L467.339 116.059C468.389 111.812 468.188 108.286 466.735 105.48C465.334 102.644 462.651 100.736 458.687 99.7557C456.057 99.1056 453.622 99.1473 451.381 99.8807C449.149 100.574 447.222 101.857 445.6 103.731C444.018 105.614 442.872 107.992 442.162 110.864L432.921 148.239L415.205 143.858Z" fill="white"/>
<path d="M537.802 131.297C531.265 133.288 525.238 133.665 519.722 132.427C514.193 131.149 509.394 128.407 505.326 124.201C501.297 119.984 498.245 114.467 496.169 107.651L496.151 107.591C494.075 100.776 493.534 94.494 494.528 88.7469C495.549 82.9477 497.939 77.9949 501.697 73.8884C505.483 69.73 510.505 66.6978 516.763 64.7918C523.021 62.8859 528.828 62.5763 534.186 63.8629C539.571 65.0976 544.233 67.75 548.173 71.8203C552.153 75.8784 555.127 81.1361 557.093 87.5933L558.732 92.9742L505.939 109.053L502.588 98.0521L547.131 84.486L541.952 97.3008L539.913 90.6045C538.772 86.8577 537.241 83.9048 535.32 81.7457C533.387 79.5468 531.19 78.1252 528.729 77.481C526.308 76.8246 523.742 76.9092 521.032 77.7347C518.321 78.5602 516.11 79.9523 514.398 81.911C512.726 83.8577 511.681 86.2885 511.262 89.2037C510.871 92.0669 511.233 95.332 512.35 98.999L514.408 105.755C515.488 109.303 516.989 112.156 518.91 114.315C520.87 116.462 523.153 117.879 525.758 118.567C528.351 119.214 531.162 119.077 534.191 118.154C536.583 117.426 538.54 116.416 540.063 115.124C541.586 113.833 542.73 112.439 543.494 110.943C544.258 109.448 544.657 108.041 544.692 106.724L544.702 106.329L560.725 101.449L560.746 102.161C560.984 104.658 560.77 107.315 560.103 110.132C559.436 112.948 558.211 115.717 556.426 118.438C554.681 121.148 552.277 123.622 549.214 125.862C546.19 128.089 542.386 129.901 537.802 131.297Z" fill="white"/>
</svg>
